<?xml version="1.0" standalone="no"?>
<!DOCTYPE svg PUBLIC "-//W3C//DTD SVG 20010904//EN"
 "http://www.w3.org/TR/2001/REC-SVG-20010904/DTD/svg10.dtd">
<svg version="1.0" xmlns="http://www.w3.org/2000/svg"
 width="3840.000000pt" height="2400.000000pt" viewBox="0 0 3840.000000 2400.000000"
 preserveAspectRatio="xMidYMid meet">

<g transform="translate(0.000000,2400.000000) scale(0.100000,-0.100000)"
fill="#000000" stroke="none">
<path d="M0 12000 l0 -12000 19200 0 19200 0 0 12000 0 12000 -19200 0 -19200
0 0 -12000z m2842 11958 c-7 -7 -12 -8 -12 -2 0 14 12 26 19 19 2 -3 -1 -11
-7 -17z m23206 -35 c4 -26 -18 -44 -46 -36 -27 7 -28 17 -1 44 24 24 43 21 47
-8z m-12418 -22 c0 -42 -27 -85 -59 -94 -15 -4 -26 3 -40 26 -19 30 -19 33 -3
62 22 39 30 45 70 45 31 0 32 -2 32 -39z m2499 -14 c-15 -12 -25 -15 -27 -8
-6 18 18 40 35 34 14 -5 12 -9 -8 -26z m11065 1 c-9 -30 -8 -30 -38 -22 -26 6
-26 7 -10 25 9 11 26 19 36 19 15 0 18 -5 12 -22z m-21748 -48 c-14 -22 -29
-40 -32 -40 -13 0 8 56 28 73 32 27 34 12 4 -33z m15215 -123 c-8 -8 -11 -7
-11 4 0 9 3 19 7 23 4 4 9 2 11 -4 3 -7 -1 -17 -7 -23z m31 11 c-7 -7 -12 -8
-12 -2 0 14 12 26 19 19 2 -3 -1 -11 -7 -17z m-184 -124 c4 -26 -22 -54 -49
-54 -24 0 -26 36 -2 62 21 24 47 19 51 -8z m-16113 -88 c-15 -25 -29 -46 -31
-46 -15 0 1 56 22 77 36 36 40 22 9 -31z m12813 17 c-4 -34 -48 -48 -48 -16 0
22 18 43 38 43 9 0 12 -9 10 -27z m-16272 -170 c-8 -15 -15 -25 -16 -21 0 12
23 58 27 54 3 -2 -2 -17 -11 -33z m14994 -17 c0 -14 -36 -46 -52 -46 -4 0 -5
7 -3 15 3 8 7 22 10 30 6 19 45 20 45 1z m-11080 -26 c-6 -11 -13 -20 -16 -20
-2 0 0 9 6 20 6 11 13 20 16 20 2 0 0 -9 -6 -20z m2193 -5 c-3 -9 -8 -14 -10
-11 -3 3 -2 9 2 15 9 16 15 13 8 -4z m-4630 -90 c-3 -9 -8 -14 -10 -11 -3 3
-2 9 2 15 9 16 15 13 8 -4z m22263 -39 c-5 -21 -13 -26 -36 -26 -32 0 -38 14
-17 41 29 38 64 28 53 -15z m-20362 -1 c-17 -26 -24 -31 -24 -16 0 10 28 41
36 41 2 0 -3 -11 -12 -25z m19606 -45 c0 -15 -7 -20 -25 -20 -41 0 -30 37 13
39 6 1 12 -8 12 -19z m-13504 -24 c7 -19 -21 -72 -43 -80 -11 -5 -22 -1 -30
10 -16 21 -16 25 -3 58 7 20 16 26 40 26 17 0 33 -6 36 -14z m1974 -40 c0 -16
-26 -46 -41 -46 -13 0 -11 34 3 48 16 16 38 15 38 -2z m-8266 -158 c-10 -18
-19 -28 -21 -21 -5 15 15 53 28 53 5 0 2 -15 -7 -32z m22066 -18 c0 -24 -38
-70 -58 -70 -32 0 -43 15 -36 47 11 57 94 77 94 23z m-17064 -22 c-11 -15 -16
-18 -16 -7 0 16 21 42 28 34 2 -2 -3 -14 -12 -27z m14022 -7 c-2 -20 -9 -27
-30 -29 -33 -4 -38 20 -12 49 22 24 46 13 42 -20z m6900 -2 c1 -9 -6 -27 -17
-40 l-20 -24 -20 22 c-24 26 -26 34 -9 51 17 17 62 11 66 -9z m-16498 -43 c0
-18 -44 -50 -48 -37 -5 16 18 51 33 51 8 0 15 -6 15 -14z m-5699 -40 c-21 -20
-22 -20 -15 -1 11 32 28 49 32 35 3 -7 -5 -22 -17 -34z m17701 12 c-7 -7 -12
-8 -12 -2 0 14 12 26 19 19 2 -3 -1 -11 -7 -17z m-13553 -54 c-14 -18 -24 -11
-15 11 3 9 11 13 16 10 8 -5 7 -11 -1 -21z m-1154 -23 c3 -6 -5 -19 -17 -31
-25 -23 -35 -12 -18 19 11 22 25 27 35 12z m18421 -116 c-5 -13 -8 -14 -20 -3
-12 11 -12 14 3 19 20 8 25 4 17 -16z m-13826 -94 c0 -23 -40 -55 -52 -43 -5
5 -4 21 1 35 13 32 51 38 51 8z m-779 -44 c-8 -8 -11 -7 -11 4 0 20 13 34 18
19 3 -7 -1 -17 -7 -23z m7786 -159 c10 -8 8 -18 -7 -47 -24 -48 -43 -63 -72
-59 -19 2 -24 10 -26 45 -5 68 53 102 105 61z m-12723 -23 c-4 -8 -8 -15 -10
-15 -2 0 -4 7 -4 15 0 8 4 15 10 15 5 0 7 -7 4 -15z m11504 -7 c-2 -17 -9 -22
-23 -20 -26 5 -29 8 -22 27 4 8 16 15 27 15 16 0 21 -5 18 -22z m-10894 -23
c-4 -8 -8 -15 -10 -15 -2 0 -4 7 -4 15 0 8 4 15 10 15 5 0 7 -7 4 -15z m19018
-47 c-7 -7 -12 -8 -12 -2 0 14 12 26 19 19 2 -3 -1 -11 -7 -17z m-23359 -33
c-3 -9 -8 -14 -10 -11 -3 3 -2 9 2 15 9 16 15 13 8 -4z m14507 -9 c0 -20 -18
-39 -39 -43 -26 -4 -28 22 -5 48 16 18 44 15 44 -5z m15128 -50 c-11 -19 -13
-19 -16 -3 -2 9 -8 15 -13 12 -5 -4 -9 -2 -9 3 0 15 10 20 30 15 17 -4 18 -8
8 -27z m-30438 -16 c-6 -12 -14 -19 -17 -17 -2 3 1 15 7 27 6 12 14 19 17 17
2 -3 -1 -15 -7 -27z m16877 -16 c7 -20 -15 -61 -36 -67 -41 -10 -54 20 -25 61
18 25 52 29 61 6z m7823 -64 c0 -5 -5 -10 -11 -10 -5 0 -7 5 -4 10 3 6 8 10
11 10 2 0 4 -4 4 -10z m-28274 -14 c6 -16 -52 -146 -65 -146 -19 0 -32 31 -29
71 2 36 8 47 37 66 40 27 50 28 57 9z m12242 -70 c4 -21 -25 -56 -46 -56 -10
0 -12 7 -7 27 13 51 46 69 53 29z m-8064 -139 c-20 -41 -39 -40 -23 1 10 25
29 45 37 38 1 -2 -5 -20 -14 -39z m26191 -17 c5 -8 -7 -43 -20 -58 -2 -2 -13
1 -24 8 -28 15 -27 47 2 53 12 2 25 5 29 6 4 0 10 -3 13 -9z m-28419 -45 c-9
-19 -19 -35 -23 -35 -8 0 7 53 19 68 19 22 21 4 4 -33z m13137 -18 c15 -10 16
-17 6 -45 -9 -28 -34 -52 -53 -52 -13 0 -27 44 -21 70 5 25 14 32 46 39 3 0
13 -5 22 -12z m-11154 -41 c-11 -24 -29 -36 -29 -18 0 12 31 54 36 49 3 -2 -1
-16 -7 -31z m23491 -29 c0 -18 -29 -56 -30 -39 0 7 -4 11 -9 7 -16 -9 -24 15
-11 30 15 19 50 20 50 2z m-27202 -22 c-6 -14 -13 -23 -15 -21 -5 5 15 46 22
46 3 0 -1 -11 -7 -25z m5893 -78 c-10 -9 -11 -8 -5 6 3 10 9 15 12 12 3 -3 0
-11 -7 -18z m5519 -54 c0 -28 -46 -83 -70 -83 -19 0 -60 56 -60 82 0 18 56 64
85 70 22 4 44 -30 45 -69z m-8209 24 c-10 -9 -11 -8 -5 6 3 10 9 15 12 12 3
-3 0 -11 -7 -18z m3319 -36 c0 -13 -40 -61 -51 -61 -13 0 -11 44 3 58 14 14
48 16 48 3z m-560 -29 c0 -5 -7 -17 -15 -28 -15 -19 -20 -8 -9 20 6 17 24 22
24 8z m2070 4 c0 -2 -7 -9 -15 -16 -12 -10 -15 -10 -15 4 0 9 7 16 15 16 8 0
15 -2 15 -4z m12038 -58 c4 -31 -30 -71 -56 -66 -24 5 -28 55 -6 79 25 28 58
21 62 -13z m-19255 -49 c-9 -18 -18 -28 -21 -21 -4 13 26 67 34 59 2 -2 -3
-19 -13 -38z m12903 -15 c-4 -9 -9 -15 -11 -12 -3 3 -3 13 1 22 4 9 9 15 11
12 3 -3 3 -13 -1 -22z m8724 -35 c0 -34 -19 -59 -45 -59 -24 0 -29 8 -25 40 4
38 70 56 70 19z m-9225 -19 c-3 -5 0 -10 7 -11 7 0 4 -4 -7 -8 -26 -11 -31 -6
-15 14 14 17 25 20 15 5z m6908 -25 c-4 -12 -53 -16 -53 -5 0 11 16 27 30 32
17 6 30 -10 23 -27z m8737 11 c0 -14 -4 -28 -10 -31 -5 -3 -10 -1 -10 4 0 6
-6 11 -14 11 -8 0 -16 6 -19 14 -5 13 0 16 46 25 4 0 7 -10 7 -23z m-11297 2
c7 -21 -12 -48 -33 -48 -13 0 -20 7 -20 18 0 34 43 57 53 30z m14017 -44 c0
-12 -7 -27 -15 -34 -11 -9 -19 -7 -37 10 -22 21 -22 22 -5 35 28 20 57 15 57
-11z m-26651 -96 c-8 -14 -14 -18 -17 -10 -4 13 17 46 25 38 3 -2 -1 -15 -8
-28z m4481 -14 c0 -16 -26 -43 -42 -44 -4 0 -5 7 -3 15 3 8 7 22 10 30 6 20
35 19 35 -1z m25631 -107 c-8 -8 -11 -5 -11 9 0 27 14 41 18 19 2 -9 -1 -22
-7 -28z m-18945 -13 c-4 -9 -9 -15 -11 -12 -3 3 -3 13 1 22 4 9 9 15 11 12 3
-3 3 -13 -1 -22z m2754 16 c0 -5 -4 -10 -10 -10 -5 0 -10 5 -10 10 0 6 5 10
10 10 6 0 10 -4 10 -10z m-3168 -112 c-7 -7 -12 -8 -12 -2 0 14 12 26 19 19 2
-3 -1 -11 -7 -17z m29 -1 c-10 -9 -11 -8 -5 6 3 10 9 15 12 12 3 -3 0 -11 -7
-18z m-11188 -19 c-13 -26 -18 -29 -21 -15 -4 19 14 47 29 47 5 0 2 -15 -8
-32z m6277 -18 c0 -5 -4 -10 -10 -10 -5 0 -10 5 -10 10 0 6 5 10 10 10 6 0 10
-4 10 -10z m11823 -56 c3 -3 1 -19 -5 -35 -7 -20 -15 -28 -25 -25 -8 3 -21 6
-29 6 -14 0 -10 23 9 48 10 12 39 16 50 6z m-22105 -116 l-23 -43 -3 38 c-3
30 2 42 20 57 33 26 35 3 6 -52z m8769 10 c-3 -8 -6 -5 -6 6 -1 11 2 17 5 13
3 -3 4 -12 1 -19z m-3756 -25 c-8 -15 -10 -15 -11 -2 0 17 10 32 18 25 2 -3
-1 -13 -7 -23z m8529 5 c0 -4 -7 -8 -15 -8 -8 0 -15 -5 -15 -12 0 -6 -3 -9 -6
-5 -11 10 3 34 20 34 9 0 16 -4 16 -9z m-10771 -72 c-13 -29 -32 -36 -22 -8 8
22 25 44 30 39 2 -3 -2 -16 -8 -31z m1598 12 c-3 -8 -6 -5 -6 6 -1 11 2 17 5
13 3 -3 4 -12 1 -19z m16306 -45 c3 -5 0 -19 -5 -33 -6 -14 -12 -20 -15 -13
-3 9 -10 10 -24 3 -22 -12 -24 -7 -8 21 6 12 17 18 25 15 9 -3 12 -1 9 4 -3 6
-2 10 4 10 5 0 12 -3 14 -7z m7687 -97 c0 -20 -11 -46 -19 -46 -18 1 -41 29
-35 44 8 20 54 22 54 2z m-17530 -11 c0 -8 -9 -19 -20 -25 -17 -9 -20 -8 -20
8 0 10 3 22 7 25 12 12 33 7 33 -8z m-6949 -22 c-8 -15 -10 -15 -11 -2 0 17
10 32 18 25 2 -3 -1 -13 -7 -23z m-1493 -18 c-6 -14 -13 -23 -16 -21 -7 7 9
46 18 46 5 0 4 -11 -2 -25z m4232 -79 c0 -8 -11 -28 -24 -43 -22 -25 -25 -26
-32 -10 -10 26 12 67 36 67 11 0 20 -6 20 -14z m-1952 -36 c-7 -10 -14 -17
-17 -15 -4 4 18 35 25 35 2 0 -1 -9 -8 -20z m22252 -25 c0 -6 -6 -19 -13 -29
-12 -16 -14 -16 -26 -2 -7 9 -11 22 -8 30 7 17 47 17 47 1z m-2830 -12 c0 -32
-15 -45 -43 -38 -30 8 -26 32 7 45 31 13 36 12 36 -7z m-23334 -90 c-13 -24
-15 -25 -16 -7 0 11 5 25 12 32 19 19 21 6 4 -25z m29078 -6 c-4 -13 -9 -14
-19 -4 -11 10 -10 13 4 18 20 8 23 6 15 -14z m-17644 -4 c-1 -24 -50 -53 -50
-30 0 7 5 18 12 25 13 13 38 16 38 5z m-803 -18 c0 -14 -26 -30 -35 -20 -6 5
17 35 28 35 3 0 7 -7 7 -15z m7561 -19 c-11 -20 -12 -20 -16 -2 -3 15 -6 16
-12 5 -5 -7 -12 -10 -16 -6 -12 12 16 35 36 30 17 -4 18 -8 8 -27z m-16277 -3
c-8 -15 -10 -15 -11 -2 0 17 10 32 18 25 2 -3 -1 -13 -7 -23z m23759 -171 c23
-18 23 -19 5 -49 -10 -17 -31 -38 -47 -48 -25 -15 -34 -15 -54 -4 -33 17 -31
54 5 90 34 34 59 37 91 11z m-22250 -13 c-7 -11 -14 -19 -16 -16 -7 7 7 37 17
37 6 0 5 -9 -1 -21z m9801 -16 c-8 -15 -10 -15 -11 -2 0 17 10 32 18 25 2 -3
-1 -13 -7 -23z m-9550 -16 c-8 -8 -11 -7 -11 4 0 20 13 34 18 19 3 -7 -1 -17
-7 -23z m209 -2 c0 -22 -29 -75 -40 -75 -17 0 -11 62 8 76 23 18 32 17 32 -1z
m-1001 -27 c-8 -14 -14 -18 -17 -10 -4 13 17 46 25 38 3 -2 -1 -15 -8 -28z
m-2128 -45 c-8 -15 -10 -15 -11 -2 0 17 10 32 18 25 2 -3 -1 -13 -7 -23z
m7389 1 c0 -13 -21 -44 -30 -44 -11 0 -14 33 -3 43 8 8 33 9 33 1z m4940 -60
c0 -8 -5 -12 -10 -9 -6 4 -8 11 -5 16 9 14 15 11 15 -7z m30 6 c0 -5 -4 -10
-10 -10 -5 0 -10 5 -10 10 0 6 5 10 10 10 6 0 10 -4 10 -10z m-53 -77 c7 -18
-33 -57 -48 -47 -14 8 -11 31 7 48 20 20 33 20 41 -1z m18893 -57 c0 -3 -4 -8
-10 -11 -5 -3 -10 -1 -10 4 0 6 5 11 10 11 6 0 10 -2 10 -4z m-5766 -44 c2 -4
-2 -16 -10 -27 -13 -17 -14 -17 -14 -1 0 9 -4 15 -9 11 -5 -3 -13 0 -17 6 -4
8 -3 9 4 5 7 -4 12 -2 12 3 0 13 26 15 34 3z m-16894 -42 c0 -4 -9 -15 -20
-25 -17 -16 -20 -16 -20 -2 0 28 11 46 26 40 8 -3 14 -8 14 -13z m7410 -20 c0
-5 -5 -10 -11 -10 -5 0 -7 5 -4 10 3 6 8 10 11 10 2 0 4 -4 4 -10z m-13686
-64 c-3 -9 -10 -16 -15 -16 -6 0 -5 9 1 21 13 24 24 20 14 -5z m21986 -44 c0
-10 -7 -27 -15 -40 -14 -18 -19 -20 -35 -9 -36 22 -21 61 25 65 18 1 25 -3 25
-16z m-15925 -1 c3 -5 1 -12 -5 -16 -5 -3 -10 1 -10 9 0 18 6 21 15 7z m155
-15 c0 -3 -4 -8 -10 -11 -5 -3 -10 -1 -10 4 0 6 5 11 10 11 6 0 10 -2 10 -4z
m1911 -29 c-10 -9 -11 -8 -5 6 3 10 9 15 12 12 3 -3 0 -11 -7 -18z m10399 -34
c0 -29 -14 -43 -38 -36 -24 6 -28 23 -10 41 18 18 48 15 48 -5z m10832 -102
c-7 -21 -33 -51 -44 -51 -4 0 -8 6 -8 14 0 8 -5 16 -11 18 -7 2 -9 13 -5 26 4
12 11 20 16 17 5 -3 11 -1 15 5 10 15 44 -11 37 -29z m-5950 -43 c-7 -7 -12
-8 -12 -2 0 14 12 26 19 19 2 -3 -1 -11 -7 -17z m-10329 -13 c-3 -9 -8 -14
-10 -11 -3 3 -2 9 2 15 9 16 15 13 8 -4z m-9869 -37 c-13 -44 -54 -68 -54 -32
0 27 20 54 41 54 16 0 19 -4 13 -22z m-6171 -3 c-3 -9 -8 -14 -10 -11 -3 3 -2
9 2 15 9 16 15 13 8 -4z m25457 -31 c0 -43 -41 -69 -67 -43 -20 20 6 59 39 59
19 0 28 -5 28 -16z m-9390 -12 c0 -5 -9 -17 -20 -27 -22 -20 -26 -14 -10 16
11 19 30 26 30 11z m-15456 -44 c-10 -18 -19 -27 -22 -20 -4 14 26 67 35 59 2
-3 -3 -20 -13 -39z m3534 7 c-6 -14 -15 -25 -20 -25 -11 0 -10 7 2 31 16 28
32 23 18 -6z m11940 13 c-2 -6 -10 -14 -16 -16 -7 -2 -10 2 -6 12 7 18 28 22
22 4z m16474 -44 c-5 -48 -7 -50 -27 -31 -18 19 -20 63 -2 70 24 10 32 0 29
-39z m-27862 29 c0 -5 -9 -19 -20 -33 -18 -23 -20 -24 -20 -4 0 20 17 44 32
44 4 0 8 -3 8 -7z m-4931 -59 c-6 -16 -13 -24 -16 -17 -5 13 16 58 23 50 3 -2
-1 -17 -7 -33z m10217 0 c-5 -14 -4 -15 9 -4 10 8 15 9 15 2 0 -6 -9 -16 -20
-22 -18 -9 -20 -8 -20 15 0 14 5 25 11 25 6 0 8 -7 5 -16z m6044 -16 c0 -24
-27 -58 -45 -58 -19 0 -24 36 -8 59 19 28 53 28 53 -1z m-11630 -4 c0 -21 -18
-54 -30 -54 -13 0 -13 26 0 51 13 23 30 25 30 3z m-2589 -131 c-8 -15 -10 -15
-11 -2 0 17 10 32 18 25 2 -3 -1 -13 -7 -23z m6519 -19 c0 -14 -4 -23 -10 -19
-5 3 -10 0 -11 -7 0 -9 -2 -10 -5 -1 -5 11 12 53 21 53 3 0 5 -12 5 -26z
m1970 -23 c0 -23 -25 -51 -46 -51 -17 0 -19 41 -2 58 19 19 48 15 48 -7z
m-3909 -33 c-10 -28 -31 -35 -31 -10 0 22 8 32 26 32 10 0 11 -6 5 -22z m1769
16 c0 -10 -23 -49 -34 -56 -24 -16 -37 27 -14 50 12 12 48 17 48 6z m-10034
-150 c-4 -9 -9 -15 -11 -12 -3 3 -3 13 1 22 4 9 9 15 11 12 3 -3 3 -13 -1 -22z
m24724 1 c0 -23 -17 -45 -36 -45 -18 0 -28 38 -14 55 17 21 50 14 50 -10z
m10128 0 c2 -12 -8 -31 -22 -44 l-24 -23 -17 26 c-25 38 -12 68 28 64 23 -2
33 -9 35 -23z m-11587 -14 c6 10 9 8 9 -8 0 -25 -15 -39 -25 -22 -4 5 -13 8
-21 5 -20 -8 -17 11 4 23 11 7 18 6 21 -1 2 -6 7 -5 12 3z m-16479 -53 c-7 -7
-12 -8 -12 -2 0 14 12 26 19 19 2 -3 -1 -11 -7 -17z m2056 -30 c-18 -26 -38
-35 -38 -16 0 18 20 38 38 38 12 0 12 -3 0 -22z m6737 -19 c4 -5 2 -23 -5 -39
-19 -45 -60 -52 -60 -9 0 43 47 78 65 48z m-15204 -46 c-8 -15 -10 -15 -11 -2
0 17 10 32 18 25 2 -3 -1 -13 -7 -23z m-757 -60 c-4 -16 -12 -37 -18 -48 -10
-19 -11 -18 -14 7 -4 29 13 68 29 68 5 0 7 -12 3 -27z m10168 -25 c-7 -7 -12
-8 -12 -2 0 14 12 26 19 19 2 -3 -1 -11 -7 -17z m18188 -4 c0 -6 -9 -22 -21
-35 -15 -17 -19 -19 -15 -6 4 12 0 17 -14 17 -24 0 -26 16 -5 27 22 13 55 11
55 -3z m-11587 -54 c-3 -12 -8 -19 -11 -16 -5 6 5 36 12 36 2 0 2 -9 -1 -20z
m6470 5 c-3 -9 -8 -14 -10 -11 -3 3 -2 9 2 15 9 16 15 13 8 -4z m47 -3 c0 -15
-11 -21 -27 -15 -12 5 -12 7 -1 14 17 11 28 11 28 1z m-6480 -6 c0 -2 -7 -7
-16 -10 -8 -3 -12 -2 -9 4 6 10 25 14 25 6z m-16771 -62 c-12 -28 -13 -28 -17
-6 -2 13 2 30 9 39 18 21 22 2 8 -33z m10191 26 c0 -5 -10 -20 -22 -32 -21
-21 -23 -21 -26 -5 -2 10 2 24 8 32 14 17 40 20 40 5z m16130 -13 c0 -51 -52
-86 -79 -53 -15 17 4 63 28 69 39 11 51 7 51 -16z m-3168 5 c3 8 6 7 10 -3 3
-9 2 -22 -3 -30 -8 -12 -10 -12 -18 0 -5 7 -14 10 -20 7 -13 -8 -14 -4 -5 18
5 12 10 14 19 6 9 -8 14 -7 17 2z m-8486 -58 c-4 -9 -9 -15 -11 -12 -3 3 -3
13 1 22 4 9 9 15 11 12 3 -3 3 -13 -1 -22z m31 -6 c-3 -8 -6 -5 -6 6 -1 11 2
17 5 13 3 -3 4 -12 1 -19z m-13317 -38 c-16 -31 -23 -19 -9 16 6 16 13 24 16
17 2 -7 -1 -22 -7 -33z m19920 16 c0 -3 -4 -8 -10 -11 -5 -3 -10 -1 -10 4 0 6
5 11 10 11 6 0 10 -2 10 -4z m-1826 -129 c36 -26 -15 -108 -58 -91 -23 9 -20
60 4 84 23 23 30 24 54 7z m-9984 -21 c0 -8 -9 -24 -19 -37 -17 -21 -20 -22
-26 -7 -4 9 -2 26 5 37 12 24 40 28 40 7z m-1966 -78 c-14 -48 -44 -65 -44
-25 0 26 17 47 38 47 9 0 11 -7 6 -22z m-1561 -23 c-3 -9 -8 -14 -10 -11 -3 3
-2 9 2 15 9 16 15 13 8 -4z m-5224 -47 c-17 -31 -23 -9 -8 28 9 22 13 25 16
12 2 -9 -1 -27 -8 -40z m30981 6 c0 -6 -7 -17 -15 -24 -12 -10 -15 -10 -15 4
0 9 -4 16 -10 16 -5 0 -10 4 -10 9 0 5 11 8 25 7 14 0 25 -6 25 -12z m-25830
-24 c0 -21 -31 -71 -40 -65 -14 9 -12 49 2 63 15 15 38 16 38 2z m-5654 -75
c-4 -14 -11 -25 -16 -25 -13 0 -13 16 1 42 14 26 23 16 15 -17z m30950 -22
c-10 -42 -35 -57 -58 -36 -33 30 -15 63 35 63 27 0 29 -2 23 -27z m-8385 -20
c-8 -15 -10 -15 -11 -2 0 17 10 32 18 25 2 -3 -1 -13 -7 -23z m10843 2 c16 0
17 -47 2 -70 -19 -28 -92 -51 -112 -34 -16 13 -19 66 -5 88 10 15 80 31 96 22
6 -3 14 -6 19 -6z m-29926 -55 c-11 -34 -28 -49 -28 -25 0 18 21 55 32 55 4 0
2 -14 -4 -30z m2692 -11 c0 -24 -17 -59 -29 -59 -18 0 -21 33 -6 56 19 30 35
31 35 3z m2860 -7 c0 -21 -33 -56 -43 -45 -11 10 -8 38 5 51 18 18 38 14 38
-6z m10525 -122 c-3 -5 1 -10 9 -10 9 0 16 -6 16 -14 0 -23 -18 -28 -29 -9 -6
10 -11 12 -11 6 0 -7 -4 -13 -10 -13 -11 0 -1 32 14 42 15 10 18 10 11 -2z
m-16616 -106 c-10 -23 -13 -25 -16 -11 -3 10 1 25 8 33 17 21 21 11 8 -22z
m2421 -1 c-1 -25 -27 -58 -32 -41 -6 16 12 58 24 58 4 0 8 -8 8 -17z m-3279
-20 c-12 -20 -14 -14 -5 12 4 9 9 14 11 11 3 -2 0 -13 -6 -23z m3148 -25 c-8
-14 -14 -18 -17 -10 -4 13 17 46 25 38 3 -2 -1 -15 -8 -28z m10711 7 c0 -25
-32 -51 -50 -40 -14 8 -12 39 2 53 21 21 48 14 48 -13z m582 -7 c-7 -7 -12 -8
-12 -2 0 14 12 26 19 19 2 -3 -1 -11 -7 -17z m29 -11 c-10 -9 -11 -8 -5 6 3
10 9 15 12 12 3 -3 0 -11 -7 -18z m12904 1 c-11 -36 -22 -43 -50 -30 -22 10
-24 15 -15 32 7 13 21 20 41 20 27 0 30 -3 24 -22z m-24565 -130 c0 -19 -18
-43 -25 -36 -9 9 4 48 16 48 5 0 9 -6 9 -12z m-2825 -28 c-4 -12 -9 -19 -12
-17 -3 3 -2 15 2 27 4 12 9 19 12 17 3 -3 2 -15 -2 -27z m2285 -64 c0 -15 -18
-31 -26 -23 -7 7 7 37 17 37 5 0 9 -6 9 -14z m2123 -6 c-3 -11 -9 -20 -14 -20
-11 0 -11 3 -3 24 9 23 23 20 17 -4z m-7447 -35 c-4 -22 -12 -35 -19 -32 -14
4 -10 46 5 65 16 19 21 7 14 -33z m36712 -14 c-21 -34 -48 -21 -48 24 0 18 32
25 48 10 12 -10 12 -16 0 -34z m-9128 -52 c0 6 5 11 10 11 15 0 12 -36 -4 -49
-23 -19 -58 7 -45 32 8 14 13 16 25 6 10 -8 14 -8 14 0z m-10180 -98 c0 -5 -7
-14 -15 -21 -12 -10 -15 -10 -15 2 0 8 3 18 7 21 9 10 23 9 23 -2z m16 -27
c-3 -8 -10 -13 -16 -9 -6 4 -5 13 3 26 13 21 23 8 13 -17z m-8264 -49 c-5 -31
-29 -52 -44 -37 -9 9 -9 17 0 37 14 31 49 31 44 0z m-7326 -32 c-14 -40 -36
-56 -36 -26 0 21 27 63 40 63 5 0 3 -17 -4 -37z m23594 -13 c18 -33 -51 -98
-90 -85 -38 12 -14 87 34 104 26 10 44 4 56 -19z m-25187 5 c-3 -9 -8 -14 -10
-11 -3 3 -2 9 2 15 9 16 15 13 8 -4z m10787 -19 c0 -25 -23 -56 -41 -56 -17 0
-22 31 -9 56 18 32 50 32 50 0z m21591 -10 c-10 -26 -36 -33 -44 -11 -10 26 2
42 28 37 19 -3 22 -8 16 -26z m-431 -36 c-13 -24 -17 -24 -36 -6 -15 16 -6 24
29 25 15 1 16 -2 7 -19z m-13530 0 c20 -13 2 -44 -29 -48 -16 -3 -21 2 -21 21
0 37 19 47 50 27z m5735 -10 c9 -15 -22 -60 -41 -60 -8 0 -12 5 -9 10 3 6 1
10 -4 10 -15 0 -14 23 1 38 15 15 45 16 53 2z m-21318 -32 c-3 -8 -6 -5 -6 6
-1 11 2 17 5 13 3 -3 4 -12 1 -19z m-1486 -25 c-10 -17 -10 -16 -11 3 0 23 13
41 18 25 2 -6 -1 -18 -7 -28z m10450 -10 c-12 -20 -14 -14 -5 12 4 9 9 14 11
11 3 -2 0 -13 -6 -23z m-2205 -4 c7 -12 -22 -46 -32 -37 -8 9 5 48 16 48 5 0
12 -5 16 -11z m17464 -30 c-7 -11 -14 -18 -17 -15 -8 8 5 36 17 36 7 0 7 -6 0
-21z m-7250 -17 c0 -32 -16 -52 -42 -52 -23 0 -24 42 -2 64 24 25 44 20 44
-12z m12945 -1 c-3 -6 -11 -11 -17 -11 -6 0 -6 6 2 15 14 17 26 13 15 -4z
m-31559 -69 c-15 -15 -16 -14 -16 6 0 12 6 31 13 43 12 19 12 19 15 -7 2 -15
-3 -34 -12 -42z m20484 17 c-7 -11 -14 -19 -16 -16 -7 7 7 37 17 37 6 0 5 -9
-1 -21z m36 -14 c-3 -8 -12 -15 -21 -15 -14 0 -13 3 2 26 17 26 30 18 19 -11z
m-9766 -4 c0 -25 -27 -48 -41 -34 -8 8 -7 17 0 32 14 26 41 28 41 2z m-8177
-11 c-7 -28 -23 -36 -23 -11 0 10 6 22 13 24 6 3 13 6 14 6 0 1 -1 -8 -4 -19z
m23168 -29 c6 10 11 11 19 3 8 -8 5 -18 -8 -35 -17 -20 -22 -21 -36 -10 -19
16 -20 33 -3 50 10 10 13 9 16 -5 2 -14 5 -14 12 -3z m-5329 -33 c-7 -7 -12
-8 -12 -2 0 14 12 26 19 19 2 -3 -1 -11 -7 -17z m-1933 -17 c12 -8 12 -13 -3
-35 -18 -29 -18 -29 -40 -20 -19 7 -21 35 -4 52 14 14 28 15 47 3z m9491 -19
c0 -10 -22 -32 -32 -32 -4 0 -8 9 -8 20 0 13 7 20 20 20 11 0 20 -4 20 -8z
m-23119 -35 c-8 -8 -11 -7 -11 4 0 20 13 34 18 19 3 -7 -1 -17 -7 -23z m4392
-1 c5 -14 -10 -36 -25 -36 -4 0 -8 8 -8 18 0 31 23 44 33 18z m-7101 -31 c-10
-37 -32 -45 -32 -11 0 14 8 29 17 35 23 12 24 11 15 -24z m26899 -19 c-11 -28
-61 -36 -61 -8 0 25 3 27 38 28 27 1 30 -1 23 -20z m-3221 1 c15 4 18 1 13
-16 -7 -27 -21 -35 -37 -22 -7 6 -16 8 -19 4 -4 -3 -7 0 -7 8 0 18 23 44 28
30 2 -5 11 -7 22 -4z m-26371 -50 c-10 -38 -29 -51 -29 -19 0 18 29 66 36 60
2 -2 -1 -21 -7 -41z m35221 33 c21 -11 18 -32 -9 -63 -15 -17 -16 -17 -28 -1
-23 31 -16 65 15 73 2 1 12 -4 22 -9z m-36155 -84 c-9 -59 -31 -79 -45 -41 -6
15 -7 32 -4 38 12 21 47 57 51 53 3 -2 1 -25 -2 -50z m9485 25 c0 -10 -7 -24
-15 -31 -12 -10 -16 -9 -21 4 -6 16 11 46 27 46 5 0 9 -8 9 -19z m-5889 -18
c-8 -15 -10 -15 -11 -2 0 17 10 32 18 25 2 -3 -1 -13 -7 -23z m4389 -26 c0
-19 -27 -53 -36 -45 -9 10 12 58 26 58 5 0 10 -6 10 -13z m2820 -6 c0 -20 -25
-51 -41 -51 -10 0 -12 30 -3 54 9 23 44 20 44 -3z m-5810 -3 c0 -19 -18 -43
-25 -36 -9 9 4 48 16 48 5 0 9 -6 9 -12z m883 -8 c-6 -22 -23 -38 -23 -21 0
17 12 41 20 41 5 0 6 -9 3 -20z m678 -33 c-13 -13 -15 1 -4 30 7 17 8 17 11
-1 2 -10 -1 -23 -7 -29z m-321 -54 c0 -5 -5 -15 -10 -23 -8 -12 -10 -11 -10 8
0 12 5 22 10 22 6 0 10 -3 10 -7z m5630 -37 c0 -28 -12 -46 -31 -46 -21 0 -24
12 -9 41 12 22 40 26 40 5z m11720 -6 c36 -19 -7 -85 -52 -78 -30 4 -34 28 -8
61 23 30 32 32 60 17z m-14982 -43 c5 -23 -24 -67 -43 -67 -25 0 -39 39 -24
67 15 29 62 29 67 0z m17762 -14 c0 -20 -28 -53 -45 -53 -24 0 -37 27 -25 49
14 27 70 30 70 4z m-19643 -25 c-5 -28 -27 -36 -27 -10 0 20 8 32 22 32 4 0 6
-10 5 -22z m184 -81 c-13 -13 -15 1 -4 30 7 17 8 17 11 -1 2 -10 -1 -23 -7
-29z m17189 23 c33 -21 -34 -109 -73 -94 -27 10 -22 59 9 83 29 23 42 25 64
11z m-6290 -43 c0 -13 -9 -32 -20 -42 -19 -17 -22 -17 -37 -2 -15 15 -15 18 1
41 21 34 56 35 56 3z m-13900 4 c0 -23 -24 -71 -34 -68 -18 6 -19 37 0 58 18
20 34 25 34 10z m9520 -11 c0 -5 -5 -10 -11 -10 -5 0 -7 5 -4 10 3 6 8 10 11
10 2 0 4 -4 4 -10z m20 -20 c0 -5 -5 -10 -11 -10 -5 0 -7 5 -4 10 3 6 8 10 11
10 2 0 4 -4 4 -10z m-11406 -57 c-8 -35 -20 -48 -29 -33 -6 10 19 60 30 60 3
0 2 -12 -1 -27z m13353 7 c-3 -11 -1 -20 4 -20 5 0 9 7 9 15 0 8 5 15 11 15 6
0 8 -7 5 -16 -3 -9 -6 -18 -6 -20 0 -6 -36 -5 -43 2 -7 7 10 44 20 44 3 0 3
-9 0 -20z m-8473 -24 c-6 -16 -24 -23 -24 -8 0 10 22 33 27 28 2 -2 1 -11 -3
-20z m-1494 -10 c0 -13 -7 -26 -15 -30 -16 -6 -20 10 -9 38 9 24 24 19 24 -8z
m16760 12 c0 -9 4 -8 10 2 8 13 10 13 10 -2 0 -33 -11 -45 -36 -40 -34 6 -32
52 3 52 7 0 13 -6 13 -12z m-17990 -168 c-6 -11 -15 -18 -21 -15 -13 9 -11 21
8 41 21 20 29 4 13 -26z m6610 13 c0 -21 -3 -24 -9 -14 -5 8 -7 20 -4 28 8 21
13 15 13 -14z m21268 -25 c-4 -28 -42 -37 -52 -13 -9 24 1 35 30 35 21 0 25
-4 22 -22z m-26821 -120 c-3 -8 -6 -5 -6 6 -1 11 2 17 5 13 3 -3 4 -12 1 -19z
m16028 13 c-3 -5 -1 -12 5 -16 5 -3 10 -1 10 4 0 6 5 11 10 11 15 0 12 -26 -5
-40 -12 -10 -18 -9 -31 4 -17 17 -13 46 6 46 6 0 9 -4 5 -9z m-16615 -41 c0
-21 -31 -71 -40 -65 -13 8 -13 31 0 56 11 20 40 26 40 9z m-2117 -40 c-3 -12
-8 -19 -11 -16 -5 6 5 36 12 36 2 0 2 -9 -1 -20z m-2296 -22 c-3 -8 -6 -5 -6
6 -1 11 2 17 5 13 3 -3 4 -12 1 -19z m19403 -11 c0 -57 -63 -92 -76 -42 -8 32
19 65 53 65 17 0 23 -6 23 -23z m6124 5 c8 -13 -18 -57 -34 -59 -8 -2 -21 1
-29 6 -12 8 -12 13 3 35 16 25 49 35 60 18z m-16984 -41 c0 -6 -4 -13 -10 -16
-5 -3 -10 1 -10 9 0 9 5 16 10 16 6 0 10 -4 10 -9z m-2137 -106 c-3 -13 -11
-30 -19 -36 -11 -9 -14 -7 -14 13 0 23 16 48 31 48 3 0 4 -11 2 -25z m16294 9
c7 -20 -40 -66 -60 -59 -21 9 -22 38 -1 60 18 18 55 17 61 -1z m-16726 -47
c-8 -8 -11 -5 -11 9 0 27 14 41 18 19 2 -9 -1 -22 -7 -28z m4269 -68 c0 -20
-21 -49 -35 -49 -16 0 -19 18 -9 44 7 18 44 22 44 5z m26470 -59 c0 -20 -13
-40 -26 -40 -23 0 -17 45 6 47 11 1 20 -2 20 -7z m-26761 -122 c-5 -10 -14
-18 -19 -18 -14 0 -12 34 2 48 17 17 30 -6 17 -30z m12070 18 c21 -26 -22 -82
-53 -70 -20 8 -21 33 0 62 18 25 36 28 53 8z m5621 -1 c-9 -11 -17 -12 -31 -4
-25 13 -24 14 12 16 26 2 29 0 19 -12z m-15482 -21 c3 -23 -31 -59 -47 -49
-15 9 -14 48 1 63 18 18 42 10 46 -14z m-3898 2 c0 -8 -9 -24 -19 -37 -17 -21
-20 -22 -26 -7 -4 9 -2 26 5 37 12 24 40 28 40 7z m-3660 -20 c0 -3 -5 -17
-10 -32 -8 -19 -14 -24 -21 -17 -8 8 -7 17 0 32 10 18 31 30 31 17z m11453
-16 c-6 -24 -23 -37 -23 -18 0 12 18 38 26 38 1 0 0 -9 -3 -20z m-1813 -4 c0
-3 -4 -8 -10 -11 -5 -3 -10 -1 -10 4 0 6 5 11 10 11 6 0 10 -2 10 -4z m1830
-21 c-7 -9 -15 -13 -17 -11 -7 7 7 26 19 26 6 0 6 -6 -2 -15z m12610 -50 c0
-7 -9 -20 -20 -30 -20 -18 -21 -18 -34 1 -8 10 -10 21 -5 22 5 2 7 8 4 12 -3
5 8 8 25 8 16 -1 30 -6 30 -13z m-27174 -111 c-3 -8 -10 -13 -16 -9 -6 3 -5
16 3 32 9 21 13 23 15 9 2 -9 1 -24 -2 -32z m1894 42 c0 -3 -4 -8 -10 -11 -5
-3 -10 -1 -10 4 0 6 5 11 10 11 6 0 10 -2 10 -4z m20134 -12 c29 -29 -25 -91
-70 -80 -22 6 -25 11 -20 34 7 29 40 62 61 62 8 0 21 -7 29 -16z m10793 -40
c-3 -3 -12 -4 -19 -1 -8 3 -5 6 6 6 11 1 17 -2 13 -5z m-17583 -33 c-5 -3 -9
-12 -10 -18 -2 -28 -4 -33 -15 -33 -6 0 -8 9 -3 22 6 20 5 21 -10 9 -14 -11
-16 -11 -16 1 0 21 7 26 36 26 15 0 22 -3 18 -7z m-8342 -79 c9 -9 8 -20 -5
-47 -20 -41 -40 -45 -63 -10 -14 22 -14 26 2 48 19 25 46 29 66 9z m8829 -11
c16 -16 29 -38 29 -48 0 -30 -23 -72 -42 -79 -10 -3 -18 -10 -18 -15 0 -18
-48 -8 -74 16 -48 44 -33 120 29 146 34 13 45 10 76 -20z m16623 -4 c29 -38
31 -52 14 -90 -14 -29 -50 -41 -108 -35 -69 6 -64 95 8 136 49 29 57 28 86
-11z m-23859 -27 c9 -15 -16 -43 -27 -32 -10 10 0 42 12 42 5 0 12 -5 15 -10z
m-3799 -48 c-12 -11 -18 7 -10 30 l8 23 4 -23 c2 -13 1 -26 -2 -30z m1536 -2
c-4 -30 -32 -43 -32 -16 0 12 25 46 34 46 1 0 1 -13 -2 -30z m-7631 -43 c-17
-17 -24 18 -9 45 l13 23 3 -29 c2 -16 -1 -33 -7 -39z m13743 47 c21 -8 21 -48
0 -68 -28 -29 -64 -15 -64 25 0 9 36 49 44 49 2 0 11 -3 20 -6z m1636 -34 c8
13 10 13 10 0 0 -17 -19 -40 -33 -40 -5 0 -7 7 -4 14 4 10 1 13 -9 9 -17 -6
-18 1 -2 27 12 19 13 19 21 -2 7 -19 10 -20 17 -8z m16004 5 c2 -7 -6 -22 -18
-34 l-23 -21 -13 25 c-10 19 -10 28 -1 39 13 16 47 11 55 -9z m-22084 -10
c-10 -12 -10 -15 1 -15 10 0 10 -3 1 -12 -19 -19 -40 6 -22 27 7 8 17 15 22
15 6 0 5 -7 -2 -15z m-9494 -51 c-3 -8 -10 -14 -16 -14 -14 0 -13 27 2 53 l13
22 3 -23 c2 -13 1 -30 -2 -38z m29414 36 c0 -14 -15 -19 -39 -13 -13 3 -18 9
-12 12 16 10 51 11 51 1z m-2080 -11 c0 -6 7 -9 15 -5 19 7 20 -14 1 -39 -13
-18 -14 -18 -36 3 -19 18 -21 24 -10 37 15 18 30 20 30 4z m10040 -26 c0 -5
-5 -15 -10 -23 -9 -13 -11 -13 -20 0 -8 13 -1 21 28 29 1 1 2 -2 2 -6z m-5347
-48 c-3 -9 -8 -14 -10 -11 -3 3 -2 9 2 15 9 16 15 13 8 -4z m-1698 -85 c7 -11
-25 -50 -41 -50 -17 0 -28 24 -21 44 6 14 54 19 62 6z m-18905 -15 c0 -8 -4
-15 -10 -15 -5 0 -7 7 -4 15 4 8 8 15 10 15 2 0 4 -7 4 -15z m-7140 -19 c0
-27 -15 -42 -25 -26 -8 13 3 50 16 50 5 0 9 -11 9 -24z m7151 -9 c-10 -9 -11
-8 -5 6 3 10 9 15 12 12 3 -3 0 -11 -7 -18z m21749 -54 c0 -7 -4 -13 -9 -13
-5 0 -11 6 -14 13 -3 8 1 14 9 14 8 0 14 -6 14 -14z m-16673 -53 c24 -22 21
-49 -8 -76 -17 -15 -20 -16 -44 0 -14 9 -26 22 -26 29 -6 61 36 87 78 47z
m-10094 -20 c-3 -12 -8 -19 -11 -16 -5 6 5 36 12 36 2 0 2 -9 -1 -20z m2027
-28 c0 -26 -25 -56 -38 -48 -17 10 -15 32 4 50 21 21 34 20 34 -2z m16440 -62
c0 -20 -32 -60 -49 -60 -21 0 -32 28 -20 54 16 33 69 38 69 6z m-9633 -69 c-2
-31 -17 -32 -17 -2 0 16 8 31 16 31 2 0 2 -13 1 -29z m-11570 -32 c-6 -49 -26
-67 -44 -42 -19 24 -16 42 10 64 33 28 40 23 34 -22z m5353 17 c0 -30 -26 -54
-42 -38 -9 9 -8 18 2 37 17 32 40 32 40 1z m6250 10 c0 -3 -4 -8 -10 -11 -5
-3 -10 -1 -10 4 0 6 5 11 10 11 6 0 10 -2 10 -4z m-11124 -72 c-3 -8 -10 -12
-16 -9 -7 4 -6 14 2 28 12 24 24 8 14 -19z m10585 -11 c-12 -20 -14 -14 -5 12
4 9 9 14 11 11 3 -2 0 -13 -6 -23z m17613 6 c-8 -13 -21 -11 -27 5 -4 10 0 12
14 9 10 -3 16 -9 13 -14z m3232 -54 c6 -15 -11 -45 -26 -45 -10 0 -18 31 -13
48 6 17 32 15 39 -3z m-20558 -18 c5 -23 -15 -47 -39 -47 -13 0 -19 7 -19 23
0 44 50 64 58 24z m-3684 4 c9 -13 -3 -39 -20 -45 -17 -6 -29 17 -20 39 6 17
32 20 40 6z m14750 -15 c-3 -9 -10 -13 -16 -10 -5 3 -4 12 3 20 15 18 22 13
13 -10z m6140 -7 c-10 -16 -24 -9 -24 12 0 18 2 19 15 9 8 -7 12 -16 9 -21z
m-5513 7 c7 4 10 2 7 -6 -7 -23 -22 -21 -37 2 -13 21 -13 22 2 10 9 -8 21 -10
28 -6z m-20041 -69 c0 -13 -9 -32 -20 -42 -18 -17 -20 -17 -26 -1 -4 10 -2 28
4 42 15 31 42 32 42 1z m15760 -46 c0 -6 -4 -13 -10 -16 -5 -3 -10 1 -10 9 0
9 5 16 10 16 6 0 10 -4 10 -9z m34 -15 c-6 -16 -24 -23 -24 -8 0 10 22 33 27
28 2 -2 1 -11 -3 -20z m-160 -22 c35 -13 3 -71 -32 -60 -24 8 -29 35 -10 54
14 14 20 14 42 6z m-13539 -53 c-5 -39 -26 -71 -46 -71 -36 0 -29 57 10 87 27
21 40 15 36 -16z m18690 -11 c0 -30 -46 -64 -74 -55 -36 11 -22 75 19 87 27 9
55 -8 55 -32z m-10055 -71 c21 -38 -33 -95 -65 -69 -21 17 -19 46 5 70 26 26
46 25 60 -1z m-13746 -21 c-9 -15 -22 -8 -19 10 2 9 4 19 4 22 1 3 5 -2 10
-10 6 -8 7 -18 5 -22z m15672 -24 c-4 -9 -9 -15 -11 -12 -3 3 -3 13 1 22 4 9
9 15 11 12 3 -3 3 -13 -1 -22z m33 -15 c-20 -12 -22 -4 -7 20 11 18 14 19 16
5 2 -9 -2 -20 -9 -25z m-15429 -26 c0 -22 -17 -49 -25 -41 -8 8 5 58 16 58 5
0 9 -8 9 -17z m5404 -20 c4 -9 0 -23 -8 -32 -14 -13 -16 -13 -22 2 -7 20 1 47
15 47 5 0 12 -8 15 -17z m13446 -39 c0 -29 -21 -54 -45 -54 -33 0 -40 16 -21
45 19 29 66 35 66 9z m-14492 -46 c-2 -25 -8 -34 -25 -36 -28 -4 -31 22 -6 50
24 27 35 22 31 -14z m-4023 -40 c-5 -25 -13 -34 -21 -25 -10 9 5 59 16 52 5
-3 7 -15 5 -27z m13632 12 c-6 -23 3 -26 21 -8 8 8 12 8 12 1 0 -6 -6 -16 -14
-22 -17 -14 -41 11 -32 34 8 22 19 18 13 -5z m9871 0 c1 -9 -3 -23 -10 -32
-14 -18 -47 -28 -46 -14 0 5 -6 12 -12 16 -9 6 -9 13 0 29 13 26 63 26 68 1z
m-25012 -36 c-3 -8 -10 -14 -16 -14 -14 0 -12 47 3 53 14 5 21 -17 13 -39z
m24095 -4 c15 0 10 -46 -5 -60 -23 -18 -61 -8 -64 16 -4 26 25 57 45 50 8 -3
19 -6 24 -6z m-26590 -63 c-8 -8 -11 -5 -11 9 0 27 14 41 18 19 2 -9 -1 -22
-7 -28z m6329 13 c0 -32 -11 -50 -31 -50 -23 0 -25 27 -3 58 17 25 34 21 34
-8z m8584 -12 c-6 -21 -5 -22 11 -8 15 13 18 13 14 1 -7 -19 -20 -23 -38 -12
-15 10 -8 41 9 41 7 0 9 -8 4 -22z m-11344 -52 c0 -25 -22 -51 -33 -39 -11 10
-8 38 5 51 18 18 28 14 28 -12z m5227 -23 c-3 -34 -27 -43 -27 -10 0 14 6 28
13 30 6 3 13 6 14 6 1 1 1 -11 0 -26z m18094 -6 c-8 -8 -11 -7 -11 4 0 20 13
34 18 19 3 -7 -1 -17 -7 -23z m-5141 13 c0 -5 7 -7 15 -4 23 9 18 -23 -7 -40
-19 -14 -23 -14 -34 2 -8 11 -9 22 -3 34 10 19 29 24 29 8z m-19684 -66 c-3
-8 -10 -14 -16 -14 -14 0 -13 33 3 49 10 10 13 9 15 -4 2 -9 1 -23 -2 -31z
m17414 31 c16 -20 -12 -65 -40 -65 -25 0 -27 41 -4 64 19 20 28 20 44 1z
m-4660 -15 c0 -5 -5 -10 -11 -10 -5 0 -7 5 -4 10 3 6 8 10 11 10 2 0 4 -4 4
-10z m-5334 -140 c0 -11 -6 -20 -13 -20 -15 0 -15 2 -7 24 9 22 20 20 20 -4z
m9046 -32 c-7 -7 -12 -8 -12 -2 0 14 12 26 19 19 2 -3 -1 -11 -7 -17z m38 -9
c-7 -11 -14 -18 -17 -15 -8 8 5 36 17 36 7 0 7 -6 0 -21z m-16044 -30 c-6 -38
-13 -46 -28 -31 -8 8 -7 17 6 36 22 34 28 33 22 -5z m2795 -23 c-11 -29 -31
-32 -31 -4 0 30 20 53 31 36 4 -6 4 -20 0 -32z m22727 15 c-2 -9 -11 -17 -20
-19 -11 -2 -16 4 -14 21 1 18 6 23 19 19 10 -2 17 -12 15 -21z m-26985 -6 c-3
-9 -8 -14 -10 -11 -3 3 -2 9 2 15 9 16 15 13 8 -4z m-286 -36 c-4 -43 -19 -65
-36 -55 -16 10 -13 48 5 74 23 34 35 27 31 -19z m5473 1 c0 -20 -5 -30 -15
-30 -18 0 -20 31 -3 48 17 17 18 16 18 -18z m1681 -23 c-8 -8 -11 -5 -11 9 0
27 14 41 18 19 2 -9 -1 -22 -7 -28z m2363 27 c3 -8 2 -12 -4 -9 -6 3 -10 10
-10 16 0 14 7 11 14 -7z m3852 -10 c-5 -13 -2 -15 13 -11 13 3 18 1 15 -8 -6
-16 -44 -7 -44 9 0 13 9 26 18 26 2 0 1 -7 -2 -16z m1390 -108 c0 -15 -5 -21
-10 -16 -5 5 -6 16 -3 24 9 23 15 19 13 -8z m-11495 -29 c-8 -8 -11 -7 -11 4
0 20 13 34 18 19 3 -7 -1 -17 -7 -23z m11529 29 c0 -3 -4 -8 -10 -11 -5 -3
-10 -1 -10 4 0 6 5 11 10 11 6 0 10 -2 10 -4z m-14460 -25 c0 -11 -4 -22 -9
-25 -11 -7 -20 14 -13 32 7 19 22 14 22 -7z m19919 -30 c24 -15 -2 -63 -31
-59 -28 4 -34 30 -13 52 19 18 24 19 44 7z m-3836 -58 c-18 -7 -16 -23 3 -23
9 0 14 -5 12 -12 -5 -15 -48 -17 -48 -3 0 25 13 45 28 44 11 0 12 -3 5 -6z
m9928 -14 c9 -17 7 -25 -12 -45 -43 -45 -99 -11 -66 40 22 32 62 35 78 5z
m-23582 -31 c-12 -20 -14 -21 -17 -5 -2 10 2 25 9 34 18 21 23 0 8 -29z
m19372 -1 c-10 -9 -11 -8 -5 6 3 10 9 15 12 12 3 -3 0 -11 -7 -18z m47 1 c-2
-5 -8 -9 -13 -9 -5 0 -11 4 -13 9 -1 5 4 9 13 9 9 0 14 -4 13 -9z m-6910 -7
c19 -12 11 -45 -12 -49 -27 -6 -40 12 -27 37 13 23 19 25 39 12z m852 -18 c0
-10 -7 -26 -15 -37 -12 -16 -12 -20 1 -33 19 -19 18 -25 -7 -57 -23 -30 -41
-33 -60 -10 -11 13 -10 21 5 48 9 17 14 39 11 48 -4 9 -2 26 5 37 14 27 60 29
60 4z m12804 4 c16 -11 17 -17 7 -36 -15 -27 -51 -42 -68 -29 -16 13 -16 33
-1 58 15 23 37 26 62 7z m-22798 -17 c0 -11 -6 -22 -13 -24 -8 -4 -13 3 -13
19 0 14 6 25 13 25 7 0 13 -9 13 -20z m4514 -74 c0 -3 -4 -8 -10 -11 -5 -3
-10 -1 -10 4 0 6 5 11 10 11 6 0 10 -2 10 -4z m-6598 -48 c-8 -8 -9 -4 -5 13
4 13 8 18 11 10 2 -7 -1 -18 -6 -23z m19897 6 c7 -6 -30 -55 -46 -61 -30 -12
-43 35 -17 62 14 14 47 13 63 -1z m-18761 -21 c-4 -34 -28 -43 -28 -10 0 25 7
37 22 37 5 0 8 -12 6 -27z m21525 -2 c13 -2 7 -34 -10 -53 -20 -22 -36 -23
-53 -3 -19 23 5 66 34 60 12 -2 24 -4 29 -4z m-25621 -26 c-2 -14 -8 -25 -13
-25 -10 0 -12 34 -2 43 13 14 20 6 15 -18z m-582 -14 c0 -26 -10 -51 -21 -51
-10 0 -12 53 -2 63 12 13 23 7 23 -12z m2886 -127 c-3 -8 -10 -14 -16 -14 -14
0 -13 33 3 49 10 10 13 9 15 -4 2 -9 1 -23 -2 -31z m2069 -14 c3 -5 1 -10 -4
-10 -6 0 -11 5 -11 10 0 6 2 10 4 10 3 0 8 -4 11 -10z m17075 -48 c0 -20 -28
-45 -44 -39 -29 11 -19 42 14 45 17 1 30 -1 30 -6z m-9030 -63 c0 -5 5 -7 10
-4 6 3 10 0 10 -8 0 -14 -20 -27 -41 -27 -5 0 -9 11 -9 25 0 16 6 25 15 25 8
0 15 -5 15 -11z m-11533 -21 c-3 -8 -6 -5 -6 6 -1 11 2 17 5 13 3 -3 4 -12 1
-19z m17233 12 c0 -5 -5 -10 -11 -10 -5 0 -7 5 -4 10 3 6 8 10 11 10 2 0 4 -4
4 -10z m-7740 -20 c0 -26 -38 -47 -46 -25 -9 23 3 45 26 45 13 0 20 -7 20 -20z
m7770 0 c-6 -11 -13 -20 -16 -20 -2 0 0 9 6 20 6 11 13 20 16 20 2 0 0 -9 -6
-20z m16683 -32 c-16 -18 -18 -19 -21 -3 -4 19 16 37 31 28 4 -3 0 -14 -10
-25z m-16223 -12 c0 -2 -7 -9 -15 -16 -13 -11 -14 -10 -9 4 5 14 24 23 24 12z
m-16574 -54 c-4 -3 -11 -1 -18 6 -8 8 -8 15 3 28 13 16 14 16 17 -5 2 -13 1
-25 -2 -29z m4890 -18 c-3 -8 -10 -14 -16 -14 -20 0 -22 31 -4 52 l19 20 3
-22 c2 -12 1 -28 -2 -36z m-8576 22 c0 -24 -16 -43 -27 -32 -8 8 6 56 17 56 6
0 10 -11 10 -24z m19526 4 c17 2 15 -26 -4 -43 -18 -16 -20 -16 -35 1 -15 17
-15 20 -1 41 12 16 19 19 24 11 4 -6 11 -11 16 -10z m10748 -15 c-4 -8 -10
-15 -15 -15 -4 0 -6 7 -3 15 4 8 10 15 15 15 4 0 6 -7 3 -15z m-23534 -38 c0
-13 -8 -31 -19 -41 -16 -15 -20 -15 -31 -1 -10 12 -9 20 4 40 21 32 46 33 46
2z m11790 -123 c0 -27 -43 -67 -67 -62 -12 2 -19 13 -21 34 -4 42 39 80 69 61
10 -6 19 -21 19 -33z m-19059 -7 c-8 -8 -11 -7 -11 4 0 20 13 34 18 19 3 -7
-1 -17 -7 -23z m10444 23 c-3 -5 -1 -10 5 -10 8 0 8 -6 0 -20 -6 -11 -15 -20
-21 -20 -16 0 -22 29 -9 45 14 17 35 21 25 5z m-8322 -25 c-3 -9 -8 -14 -10
-11 -3 3 -2 9 2 15 9 16 15 13 8 -4z m3807 -9 c0 -24 -25 -43 -35 -26 -7 12
12 50 25 50 6 0 10 -11 10 -24z m19470 -16 c0 -24 -34 -52 -54 -44 -15 6 -22
44 -10 57 3 3 19 5 35 5 20 -1 29 -6 29 -18z m-16600 -89 c0 -23 -28 -54 -41
-46 -14 9 -11 32 7 49 21 21 34 20 34 -3z m10505 -1 c9 -14 -13 -50 -31 -50
-17 0 -28 24 -20 45 6 17 42 20 51 5z m6843 -63 c5 -25 -27 -59 -52 -55 -28 4
-34 47 -10 65 25 18 58 13 62 -10z m-25998 -22 c0 -24 -5 -35 -15 -35 -18 0
-20 41 -3 58 17 17 18 16 18 -23z m6655 -15 c-7 -11 -35 -14 -35 -4 0 3 5 15
11 26 10 19 12 20 21 5 5 -10 6 -22 3 -27z m12612 5 c4 -30 -22 -58 -46 -50
-25 8 -27 37 -5 60 21 21 48 15 51 -10z m-8223 0 c9 -26 -19 -65 -47 -65 -14
0 -15 36 -2 56 18 27 40 31 49 9z m-628 -9 c8 -21 -14 -56 -35 -56 -27 0 -35
29 -15 51 20 23 43 24 50 5z m-1791 -6 c-3 -5 -2 -10 4 -10 6 0 8 -7 5 -15 -9
-21 -34 -19 -34 3 0 20 8 32 22 32 5 0 6 -4 3 -10z m9702 -26 c8 -21 -19 -46
-40 -38 -17 6 -23 35 -10 47 12 13 44 7 50 -9z m1399 -13 c11 9 14 7 14 -11 0
-19 -4 -21 -27 -15 -37 9 -38 11 -22 31 13 16 14 16 17 0 3 -14 7 -15 18 -5z
m-10799 -18 c-3 -33 -37 -46 -37 -14 0 15 20 38 37 41 1 0 1 -12 0 -27z m5969
-15 c8 -25 -21 -58 -51 -58 -35 0 -41 40 -10 67 28 25 51 21 61 -9z m22918
-139 c29 -23 34 -59 11 -83 -8 -8 -15 -19 -15 -25 0 -7 -22 -11 -54 -11 -52 0
-55 1 -61 28 -6 28 7 75 27 99 16 20 62 16 92 -8z m-28776 -26 c3 -22 -22 -48
-38 -38 -14 8 -13 38 2 53 16 16 32 10 36 -15z m-8562 -10 c-10 -10 -19 5 -10
18 6 11 8 11 12 0 2 -7 1 -15 -2 -18z m8118 -8 c3 -9 0 -15 -9 -15 -9 0 -12 6
-9 15 4 8 7 15 9 15 2 0 5 -7 9 -15z m24428 -17 c-7 -7 -12 -8 -12 -2 0 14 12
26 19 19 2 -3 -1 -11 -7 -17z m-3682 -39 c0 -17 -23 -21 -37 -6 -13 13 -12 15
11 15 14 0 26 -4 26 -9z m-27950 -18 c0 -6 -4 -13 -10 -16 -5 -3 -10 1 -10 9
0 9 5 16 10 16 6 0 10 -4 10 -9z m24481 -21 c30 -17 24 -57 -11 -75 -37 -19
-54 -19 -70 0 -16 19 3 72 28 78 28 8 33 7 53 -3z m-14419 -22 c-7 -7 -12 -8
-12 -2 0 14 12 26 19 19 2 -3 -1 -11 -7 -17z m3214 -45 c-10 -10 -19 5 -10 18
6 11 8 11 12 0 2 -7 1 -15 -2 -18z m-4365 7 c39 -21 10 -100 -36 -100 -14 0
-32 11 -45 27 l-22 28 31 27 c34 31 43 33 72 18z m14187 -23 c15 6 15 -2 2
-28 -13 -23 -40 -26 -40 -4 0 8 -4 15 -10 15 -5 0 -7 7 -4 15 4 10 11 12 22 6
10 -4 23 -6 30 -4z m-7868 -54 c0 -26 -20 -53 -41 -53 -27 0 -34 25 -15 54 17
26 56 26 56 -1z m-10566 -10 c7 -18 -14 -37 -27 -24 -9 9 1 41 13 41 4 0 11
-8 14 -17z m-1984 -37 c-16 -17 -31 4 -18 27 11 21 11 21 18 2 4 -11 4 -24 0
-29z m-700 -6 c0 -11 -6 -20 -14 -20 -9 0 -12 7 -9 20 3 11 9 20 14 20 5 0 9
-9 9 -20z m15290 5 c19 -22 -6 -67 -34 -63 -27 4 -32 34 -10 59 21 23 28 24
44 4z m-10994 -91 c-3 -8 -10 -14 -16 -14 -14 0 -13 33 3 49 10 10 13 9 15 -4
2 -9 1 -23 -2 -31z m7494 15 c14 -26 -11 -69 -40 -69 -33 0 -43 34 -19 64 25
31 44 33 59 5z m2868 -20 c-3 -24 -33 -48 -44 -36 -4 3 -1 13 6 22 7 8 9 15 5
15 -4 0 -14 -8 -21 -17 -7 -10 -13 -13 -14 -8 0 23 21 38 63 44 5 0 7 -9 5
-20z m-5888 -29 c0 -25 -27 -51 -45 -44 -19 8 -19 38 0 58 19 19 45 10 45 -14z
m18407 -72 c-3 -8 -6 -5 -6 6 -1 11 2 17 5 13 3 -3 4 -12 1 -19z m-25097 -34
c0 -8 -5 -12 -10 -9 -6 4 -8 11 -5 16 9 14 15 11 15 -7z m13198 -17 c4 -37
-24 -69 -57 -65 -32 4 -40 38 -16 74 23 36 69 30 73 -9z m-638 14 c0 -6 -4
-13 -10 -16 -5 -3 -10 1 -10 9 0 9 5 16 10 16 6 0 10 -4 10 -9z m9967 -16 c-4
-8 -11 -15 -17 -15 -6 0 -6 7 2 20 14 22 24 19 15 -5z m-9937 -4 c0 -6 -4 -13
-10 -16 -5 -3 -10 1 -10 9 0 9 5 16 10 16 6 0 10 -4 10 -9z m6369 -58 c3 -2
-3 -11 -12 -20 -16 -16 -17 -16 -17 -1 0 9 -4 20 -10 23 -6 4 -7 -1 -3 -11 4
-12 3 -15 -5 -10 -7 4 -12 14 -12 22 0 11 7 13 28 8 15 -4 29 -9 31 -11z
m-12760 -22 c12 -22 -21 -64 -44 -55 -20 8 -19 33 2 56 20 23 30 23 42 -1z
m-212 -17 c10 -10 12 -19 6 -25 -16 -16 -41 0 -36 22 6 23 10 24 30 3z m-7444
-34 c3 -11 4 -20 2 -20 -2 0 -10 -3 -19 -6 -11 -4 -16 0 -16 13 0 36 24 45 33
13z m3247 -102 c0 -5 -7 -8 -15 -8 -15 0 -20 21 -8 33 7 7 23 -11 23 -25z
m-4599 -21 c-8 -8 -11 -5 -11 9 0 27 14 41 18 19 2 -9 -1 -22 -7 -28z m16167
-14 c2 -14 -5 -27 -22 -38 -40 -26 -60 0 -35 46 14 27 53 22 57 -8z m-3568
-28 c-7 -9 -15 -13 -18 -10 -3 2 1 11 8 20 7 9 15 13 18 10 3 -2 -1 -11 -8
-20z m22 -17 c-7 -7 -12 -8 -12 -2 0 14 12 26 19 19 2 -3 -1 -11 -7 -17z
m20838 -7 c0 -4 -8 -16 -19 -25 -18 -16 -19 -16 -23 7 -4 18 0 23 19 25 13 1
23 -2 23 -7z m-11876 -51 c-17 -16 -21 -17 -38 -5 -22 16 -14 50 9 41 8 -3 15
-1 15 5 0 6 7 3 16 -6 16 -15 16 -18 -2 -35z m-8964 -4 c0 -2 -7 -9 -15 -16
-13 -11 -14 -10 -9 4 5 14 24 23 24 12z m12 -28 c-7 -7 -12 -8 -12 -2 0 14 12
26 19 19 2 -3 -1 -11 -7 -17z m-6222 -37 c0 -22 -25 -45 -40 -36 -13 8 -13 28
2 43 18 18 38 14 38 -7z m11747 -53 c-3 -8 -6 -5 -6 6 -1 11 2 17 5 13 3 -3 4
-12 1 -19z m43 8 c0 -3 -4 -8 -10 -11 -5 -3 -10 -1 -10 4 0 6 5 11 10 11 6 0
10 -2 10 -4z m-13524 -42 c-4 -9 -9 -15 -11 -12 -3 3 -3 13 1 22 4 9 9 15 11
12 3 -3 3 -13 -1 -22z m14838 -9 c12 -33 -26 -71 -58 -59 -19 7 -21 45 -4 62
17 17 55 15 62 -3z m5666 -40 c10 -12 10 -18 -1 -32 -31 -39 -41 -41 -59 -8
-11 20 -11 27 0 40 16 19 44 19 60 0z m-25060 -9 c0 -22 -11 -46 -21 -46 -10
0 -12 43 -2 53 11 12 23 8 23 -7z m4340 -137 c9 -16 9 -28 0 -50 -15 -35 -43
-38 -58 -5 -9 20 -7 29 9 50 25 31 35 32 49 5z m-1540 -43 c0 -30 -27 -55 -36
-33 -6 17 12 57 26 57 6 0 10 -11 10 -24z m6213 -23 c-5 -11 -3 -14 6 -8 9 5
12 2 9 -11 -5 -26 -48 -32 -48 -7 0 19 18 43 32 43 4 0 4 -7 1 -17z m-6631
-25 c-6 -6 -15 -9 -18 -5 -4 3 -4 14 0 23 5 13 9 15 18 6 9 -9 9 -15 0 -24z
m13025 -9 c9 -9 8 -19 -3 -40 -16 -32 -35 -37 -54 -14 -10 12 -9 20 4 40 18
27 35 32 53 14z m-3679 -32 c14 5 15 3 5 -7 -9 -10 -15 -10 -26 -2 -8 7 -17 9
-21 5 -4 -4 -4 1 0 11 6 16 8 16 16 3 5 -10 15 -14 26 -10z m4147 13 c4 -6 11
-7 17 -4 6 4 8 -1 6 -11 -1 -10 -11 -23 -20 -29 -23 -14 -42 5 -33 33 7 23 20
27 30 11z m-15759 -45 c-3 -8 -10 -15 -16 -15 -14 0 -12 37 3 43 15 5 21 -8
13 -28z m2044 -35 c0 -5 -4 -10 -10 -10 -5 0 -10 5 -10 10 0 6 5 10 10 10 6 0
10 -4 10 -10z m2708 -67 c12 -54 -3 -93 -36 -93 -45 0 -58 72 -20 115 31 36
43 31 56 -22z m20722 37 c0 -5 -4 -10 -10 -10 -5 0 -10 5 -10 10 0 6 5 10 10
10 6 0 10 -4 10 -10z m-27230 -44 c0 -25 -26 -43 -33 -23 -5 15 10 47 23 47 6
0 10 -11 10 -24z m19940 5 c0 -11 -10 -27 -21 -35 -19 -13 -24 -13 -36 0 -23
23 -7 54 28 54 22 0 29 -5 29 -19z m-15437 -75 c3 -8 0 -19 -7 -25 -10 -9 -12
-6 -8 14 5 29 8 31 15 11z m27517 -22 c21 -21 22 -27 10 -34 -8 -5 -11 -10 -6
-10 5 0 3 -7 -4 -15 -8 -9 -30 -15 -56 -15 -38 0 -44 3 -44 21 0 11 5 30 11
42 24 45 55 49 89 11z m-27815 5 c8 -12 -33 -59 -51 -59 -22 0 -26 20 -10 45
17 26 50 33 61 14z m179 -51 c7 -30 -30 -71 -43 -49 -11 18 7 71 24 71 7 0 15
-10 19 -22z m-5048 -64 c-3 -8 -10 -14 -16 -14 -14 0 -12 57 3 63 13 4 22 -26
13 -49z m15654 35 c0 -6 7 -9 15 -5 22 8 18 -12 -5 -24 -11 -6 -20 -9 -21 -8
-7 29 -7 48 1 48 6 0 10 -5 10 -11z m2941 -22 c-8 -8 -11 -7 -11 4 0 20 13 34
18 19 3 -7 -1 -17 -7 -23z m49 14 c0 -5 -7 -14 -15 -21 -16 -14 -18 -10 -9 14
6 17 24 22 24 7z m-6577 -28 c-4 -11 -3 -14 5 -9 7 4 12 1 12 -7 0 -18 -30
-31 -43 -18 -5 5 -4 17 2 30 14 25 33 28 24 4z m17612 -3 c3 -5 1 -10 -4 -10
-6 0 -11 5 -11 10 0 6 2 10 4 10 3 0 8 -4 11 -10z m-27105 -21 c0 -5 -4 -9
-10 -9 -5 0 -10 7 -10 16 0 8 5 12 10 9 6 -3 10 -10 10 -16z m976 -46 c-7 -18
-35 -16 -43 2 -3 9 3 25 13 36 l18 20 8 -22 c5 -13 6 -29 4 -36z m11284 7 c0
-23 -36 -54 -55 -47 -35 14 -1 79 36 70 10 -3 19 -13 19 -23z m-3148 -22 c-9
-9 -12 -9 -12 3 0 12 -2 12 -10 -1 -8 -12 -10 -11 -10 6 0 29 11 37 29 19 12
-12 13 -17 3 -27z m-12432 8 c0 -13 -7 -26 -15 -30 -11 -4 -15 1 -15 18 0 12
3 26 7 29 13 14 23 6 23 -17z m35690 4 c0 -5 -5 -10 -11 -10 -5 0 -7 5 -4 10
3 6 8 10 11 10 2 0 4 -4 4 -10z m-11766 -54 c-6 -16 -24 -23 -24 -8 0 10 22
33 27 28 2 -2 1 -11 -3 -20z m9934 12 c27 -27 -2 -78 -45 -78 -18 0 -23 5 -23
25 0 24 31 65 48 65 4 0 13 -5 20 -12z m-26472 -115 c-5 -12 -10 -13 -17 -6
-8 8 -7 18 2 34 12 21 14 22 17 6 2 -10 1 -25 -2 -34z m12299 -83 c-3 -5 -11
-10 -16 -10 -6 0 -7 5 -4 10 3 6 11 10 16 10 6 0 7 -4 4 -10z m-12008 -39 c1
-11 -5 -22 -13 -25 -9 -3 -14 1 -14 13 0 32 25 44 27 12z m10989 -67 c-4 -12
-1 -14 14 -9 16 5 19 3 13 -12 -10 -26 -24 -33 -40 -18 -16 17 -17 27 -1 43
16 16 21 15 14 -4z m4764 2 c0 -3 -4 -8 -10 -11 -5 -3 -10 -1 -10 4 0 6 5 11
10 11 6 0 10 -2 10 -4z m-6140 -16 c0 -5 -7 -10 -16 -10 -8 0 -12 5 -9 10 3 6
10 10 16 10 5 0 9 -4 9 -10z m-9101 -56 c-15 -18 -28 -18 -36 1 -3 9 3 25 13
36 l18 20 8 -22 c5 -13 4 -27 -3 -35z m-5343 -21 c-11 -11 -19 6 -11 24 8 17
8 17 12 0 3 -10 2 -21 -1 -24z m8013 -4 c-21 -13 -29 -11 -29 9 0 27 10 33 28
16 13 -14 13 -17 1 -25z m4401 22 c0 -6 -4 -13 -10 -16 -5 -3 -10 1 -10 9 0 9
5 16 10 16 6 0 10 -4 10 -9z m25 -20 c-3 -6 -11 -11 -17 -11 -6 0 -6 6 2 15
14 17 26 13 15 -4z m8424 -13 c-5 -10 -12 -18 -14 -18 -2 0 -9 8 -14 18 -7 14
-5 17 14 17 19 0 21 -3 14 -17z m13145 -4 c8 -20 -37 -69 -57 -61 -13 5 -14
12 -7 38 14 48 50 61 64 23z m-24774 -36 c0 -18 -33 -33 -50 -23 -15 9 -12 23
11 46 17 17 23 19 30 8 5 -8 9 -22 9 -31z m-8326 -13 c-4 -8 -8 -15 -10 -15
-2 0 -4 7 -4 15 0 8 4 15 10 15 5 0 7 -7 4 -15z m24226 -6 c0 -23 -29 -32 -49
-17 -9 7 -18 13 -20 15 -1 1 0 6 3 12 11 17 66 8 66 -10z m1310 11 c0 -5 -4
-10 -10 -10 -5 0 -10 5 -10 10 0 6 5 10 10 10 6 0 10 -4 10 -10z m-26322 -97
c-4 -34 -28 -43 -28 -10 0 25 7 37 22 37 5 0 8 -12 6 -27z m10404 5 c-7 -7
-12 -8 -12 -2 0 14 12 26 19 19 2 -3 -1 -11 -7 -17z m1248 6 c0 -8 5 -12 11
-8 7 4 10 -1 7 -12 -4 -23 -48 -32 -48 -11 0 23 11 47 21 47 5 0 9 -7 9 -16z
m12460 -19 c0 -16 -27 -27 -35 -14 -4 5 -11 7 -16 4 -9 -6 -13 18 -4 27 10 10
55 -4 55 -17z m-10089 -10 c5 4 9 1 9 -5 0 -16 -30 -24 -42 -12 -6 6 -8 19 -4
29 7 17 8 17 17 0 6 -9 14 -15 20 -12z m-3596 -1 c-9 -9 -19 -13 -23 -10 -3 4
0 11 8 16 24 15 33 11 15 -6z m-5755 -85 c13 -23 -2 -49 -26 -49 -17 0 -18 24
-4 51 13 24 17 24 30 -2z m12549 12 c12 -8 13 -14 3 -35 -13 -29 -33 -33 -51
-12 -9 11 -10 20 -1 35 12 23 27 26 49 12z m-14723 -98 c-5 -12 -10 -13 -18
-5 -8 8 -8 15 3 28 15 18 25 4 15 -23z m16224 26 c0 -8 5 -8 15 1 23 19 32
-16 10 -40 -20 -22 -33 -24 -54 -11 -12 8 -13 14 -3 35 12 26 32 35 32 15z
m-4660 -29 c0 -5 -5 -10 -11 -10 -5 0 -7 5 -4 10 3 6 8 10 11 10 2 0 4 -4 4
-10z m20 -25 c-7 -8 -18 -15 -24 -15 -6 0 -2 7 8 15 25 19 32 19 16 0z
m-14156 -17 c3 -13 0 -29 -8 -37 -17 -16 -37 -7 -31 14 3 8 7 22 10 30 7 22
22 18 29 -7z m18670 -57 c4 -5 0 -12 -6 -15 -7 -3 -3 -3 10 0 24 6 31 -13 10
-34 -18 -18 -36 -15 -48 9 -16 29 17 68 34 40z m16101 -33 c14 -12 25 -29 25
-39 0 -20 -40 -48 -72 -52 -21 -2 -23 2 -20 33 3 32 25 80 37 80 3 0 16 -10
30 -22z m-18902 -11 c21 -8 15 -22 -15 -38 -18 -10 -20 -9 -15 4 4 12 2 14
-10 10 -9 -4 -14 -2 -11 3 3 5 8 18 12 29 4 12 10 15 14 9 4 -6 15 -13 25 -17z
m12235 -36 c-5 -22 -22 -23 -35 -2 -10 17 -9 19 13 17 15 0 23 -6 22 -15z
m-5726 -57 c11 -23 10 -29 -12 -46 -47 -38 -98 -2 -67 46 23 35 63 35 79 0z
m-12076 7 c-4 -5 -1 -11 5 -13 17 -6 -2 -38 -22 -38 -25 0 -35 26 -19 45 13
16 45 21 36 6z m14422 -23 c-2 -6 -10 -14 -16 -16 -7 -2 -10 2 -6 12 7 18 28
22 22 4z m-15924 -25 c8 -20 -27 -59 -43 -49 -24 15 -5 66 25 66 6 0 15 -8 18
-17z m1232 -13 c20 0 17 -18 -5 -30 -25 -13 -35 1 -25 33 4 12 9 17 11 10 3
-7 11 -13 19 -13z m-6568 -31 c-4 -33 -38 -39 -38 -7 0 28 20 52 33 39 5 -5 7
-19 5 -32z m9620 20 c1 -8 -7 -27 -18 -42 -18 -22 -25 -25 -41 -17 -24 13 -24
37 -2 62 20 22 56 20 61 -3z m-6744 -60 c-7 -13 -34 -11 -34 2 0 6 5 20 11 32
l12 21 9 -23 c4 -12 6 -27 2 -32z m4646 1 c0 -23 -36 -54 -55 -47 -22 9 -18
53 7 71 25 17 48 6 48 -24z m-1025 -1 c5 -15 1 -28 -14 -42 -19 -20 -22 -20
-38 -5 -15 16 -15 19 1 42 20 32 42 33 51 5z m-10363 -34 c-12 -22 -27 -2 -18
22 5 12 10 13 17 6 7 -7 8 -17 1 -28z m4468 6 c0 -20 -17 -37 -27 -28 -7 8 7
47 18 47 5 0 9 -9 9 -19z m-3427 -150 c5 -19 -9 -41 -25 -41 -10 0 -11 44 -1
53 11 12 21 8 26 -12z m20132 -4 c26 -20 13 -65 -22 -73 -35 -9 -58 19 -41 50
19 37 35 43 63 23z m-8485 -51 c0 -3 -4 -8 -10 -11 -5 -3 -10 -1 -10 4 0 6 5
11 10 11 6 0 10 -2 10 -4z m-10411 -107 c-23 -14 -29 -10 -29 20 0 37 22 46
34 13 6 -17 5 -27 -5 -33z m19629 19 c4 -18 -23 -48 -44 -48 -15 0 -30 43 -19
60 10 15 59 6 63 -12z m-19162 -54 c-3 -8 -11 -12 -17 -8 -8 4 -7 9 2 15 8 5
10 9 6 9 -5 0 -5 5 -1 12 10 16 18 -7 10 -28z m7944 7 c5 7 12 10 15 7 11 -11
-5 -28 -26 -28 -10 0 -19 6 -19 13 0 22 15 30 19 11 2 -13 5 -14 11 -3z
m-3977 -163 c-2 -5 -11 -1 -19 7 -9 8 -12 20 -9 26 5 6 12 4 20 -8 7 -10 11
-21 8 -25z m3354 31 c17 -17 -11 -69 -37 -69 -15 0 -20 7 -20 28 0 44 32 66
57 41z m-2867 -51 c0 -5 -7 -8 -15 -8 -17 0 -18 2 -9 25 5 13 8 14 15 3 5 -7
9 -16 9 -20z m27842 15 c10 -9 18 -24 18 -34 0 -22 -46 -59 -72 -59 -17 0 -19
5 -13 33 7 33 31 77 42 77 4 0 15 -7 25 -17z m-23265 -17 c-4 -10 -1 -13 9 -9
19 7 18 -12 -2 -31 -13 -14 -17 -14 -30 -2 -17 18 -18 28 -2 44 17 17 31 15
25 -2z m11763 -11 c0 -8 -4 -15 -10 -15 -5 0 -10 7 -10 15 0 8 5 15 10 15 6 0
10 -7 10 -15z m-470 -26 c0 -6 7 -9 15 -6 18 7 26 -5 16 -22 -7 -10 -13 -9
-30 5 -22 20 -27 34 -11 34 6 0 10 -5 10 -11z m-18606 -8 c3 -5 -1 -14 -8 -20
-16 -13 -32 2 -21 19 8 12 22 13 29 1z m29375 -30 c7 -2 -32 -41 -41 -41 -9 0
-11 33 -2 42 3 3 13 5 22 3 9 -2 19 -4 21 -4z m-15649 -11 c0 -5 -4 -10 -10
-10 -5 0 -10 5 -10 10 0 6 5 10 10 10 6 0 10 -4 10 -10z m17238 -20 c-7 -10
-14 -17 -17 -15 -4 4 18 35 25 35 2 0 -1 -9 -8 -20z m-18106 -12 c-7 -7 -12
-8 -12 -2 0 14 12 26 19 19 2 -3 -1 -11 -7 -17z m-7374 -6 c2 -7 -3 -12 -10
-12 -8 0 -15 7 -15 15 0 18 19 15 25 -3z m7398 -18 c-11 -7 -22 -12 -25 -9 -2
3 4 12 15 19 10 8 21 12 24 9 3 -2 -4 -11 -14 -19z m6434 -23 c15 -30 12 -44
-16 -64 -23 -17 -27 -18 -50 -3 -23 16 -23 18 -9 45 22 44 57 54 75 22z
m-19980 -51 c0 -5 -5 -10 -11 -10 -5 0 -7 5 -4 10 3 6 8 10 11 10 2 0 4 -4 4
-10z m2377 -19 c2 -24 -22 -47 -32 -31 -9 15 4 50 19 50 6 0 12 -9 13 -19z
m6910 -24 c11 4 14 2 11 -8 -2 -8 -14 -15 -26 -17 -16 -3 -22 2 -22 16 0 24
14 39 18 18 2 -9 9 -13 19 -9z m18178 -7 c8 -14 -13 -50 -30 -50 -18 0 -25 21
-13 43 10 19 33 23 43 7z m-28401 -16 c9 -23 8 -24 -14 -24 -11 0 -20 2 -20 4
0 12 13 36 20 36 4 0 11 -7 14 -16z m166 -18 c-14 -14 -24 0 -16 21 6 15 8 15
16 3 6 -9 5 -19 0 -24z m14522 12 c-7 -7 -12 -8 -12 -2 0 14 12 26 19 19 2 -3
-1 -11 -7 -17z m-1492 -23 c16 -19 -12 -65 -40 -65 -27 0 -34 17 -20 51 14 32
40 38 60 14z m-6064 -10 c9 -8 12 -19 9 -25 -7 -11 -35 12 -35 29 0 15 9 14
26 -4z m9615 -45 c23 0 24 -8 2 -32 -23 -26 -34 -22 -27 10 7 25 6 26 -11 12
-17 -14 -18 -14 -5 10 8 15 15 20 18 12 2 -6 12 -12 23 -12z m-7398 -51 c13
-9 1 -25 -23 -32 -16 -4 -20 0 -20 17 0 27 23 54 29 34 2 -7 8 -16 14 -19z
m22097 17 c0 -14 -29 -31 -38 -22 -2 3 -2 12 1 21 8 19 37 20 37 1z m-32566
-31 c8 -30 1 -45 -19 -45 -19 0 -24 21 -12 48 13 29 23 28 31 -3z m791 -15
c-9 -15 -35 -12 -35 3 0 7 5 18 12 25 9 9 14 9 21 -3 4 -8 5 -20 2 -25z m8205
25 c15 -18 7 -43 -16 -52 -22 -8 -34 15 -21 44 12 27 20 29 37 8z m397 -16
c-4 -17 -3 -19 6 -10 13 13 27 14 27 2 0 -14 -32 -23 -43 -12 -5 5 -7 17 -4
25 9 24 20 19 14 -5z m22993 7 c0 -16 -26 -46 -41 -46 -16 0 -10 32 9 46 22
17 32 17 32 0z m-30343 -28 c15 -19 25 -67 18 -88 -6 -20 -67 -60 -91 -60 -18
0 -44 58 -44 99 0 16 7 37 16 45 18 19 87 21 101 4z m8926 -81 c4 3 7 -1 7 -9
0 -9 -7 -21 -15 -28 -10 -8 -15 -9 -15 -2 0 6 -7 9 -15 6 -18 -7 -19 0 -4 27
8 15 14 18 23 10 7 -6 16 -8 19 -4z m-9882 -63 c7 -21 6 -31 -7 -45 -20 -22
-44 -14 -44 14 0 17 25 57 37 57 2 0 8 -12 14 -26z m-1472 -41 c1 -21 -33 -42
-46 -29 -13 12 -4 60 13 73 16 12 19 11 26 -4 3 -10 7 -28 7 -40z m13381 33
c0 -3 -4 -8 -10 -11 -5 -3 -10 -1 -10 4 0 6 5 11 10 11 6 0 10 -2 10 -4z
m-5395 -90 c15 -15 2 -36 -22 -36 -13 0 -18 32 -6 43 9 10 13 9 28 -7z m-4955
-40 c-14 -14 -22 -2 -14 18 5 14 9 15 15 4 4 -7 4 -17 -1 -22z m-5560 -5 c0
-5 3 -16 6 -24 6 -17 -25 -32 -39 -18 -5 5 -4 17 2 30 12 21 31 29 31 12z
m4326 -12 c8 -14 -11 -33 -25 -25 -11 7 -4 36 9 36 5 0 12 -5 16 -11z m4288
-45 c7 -19 -10 -44 -30 -44 -17 0 -18 32 -2 48 16 16 25 15 32 -4z m2903 -19
c6 -18 -23 -55 -44 -55 -20 0 -26 25 -13 49 13 25 48 28 57 6z m20013 -9 c0
-16 -7 -27 -21 -31 -22 -7 -43 11 -32 28 4 7 34 22 51 26 1 1 2 -10 2 -23z
m-25087 -21 c4 -8 2 -17 -3 -20 -6 -4 -10 3 -10 14 0 25 6 27 13 6z m2412 -14
c0 -30 -31 -53 -44 -32 -12 19 9 63 28 59 9 -2 16 -13 16 -27z m3195 10 c0 -5
7 -11 15 -13 20 -4 4 -27 -23 -33 -17 -3 -22 1 -22 19 0 12 3 26 7 29 9 10 23
8 23 -2z m5800 -26 c-7 -9 -15 -13 -19 -10 -3 3 1 10 9 15 21 14 24 12 10 -5z
m-6483 -20 c-4 -8 -2 -17 4 -20 13 -8 2 -25 -17 -25 -17 0 -19 31 -2 48 16 16
21 15 15 -3z m2513 5 c13 -8 13 -13 0 -37 -21 -37 -66 -40 -62 -4 5 44 30 61
62 41z m-10440 -41 c0 -5 -4 -9 -10 -9 -5 0 -10 7 -10 16 0 8 5 12 10 9 6 -3
10 -10 10 -16z m-1576 -24 c8 -41 2 -55 -24 -55 -26 0 -35 36 -16 65 22 34 33
31 40 -10z m6273 12 c-6 -20 -27 -19 -27 2 0 14 5 19 15 14 9 -3 14 -10 12
-16z m-8337 -11 c0 -31 -25 -53 -34 -30 -9 23 2 54 20 54 8 0 14 -10 14 -24z
m8321 -71 c14 9 11 -11 -4 -23 -7 -6 -19 -7 -26 -3 -11 7 -11 13 0 32 11 21
14 21 17 6 2 -9 8 -15 13 -12z m6553 -20 c19 -14 19 -15 1 -35 -23 -25 -44
-11 -37 25 5 29 10 30 36 10z m-3064 -25 c8 -5 11 -12 8 -16 -4 -3 -14 1 -23
10 -18 17 -9 21 15 6z m-3435 -95 c-1 -14 -4 -28 -8 -31 -9 -10 -20 23 -13 41
9 24 22 17 21 -10z m-6700 -24 c-3 -12 -11 -21 -16 -21 -10 0 -12 43 -2 53 12
13 25 -10 18 -32z m925 14 c0 -16 -6 -25 -15 -25 -18 0 -20 21 -3 38 17 17 18
16 18 -13z m26514 10 c-4 -8 -8 -15 -10 -15 -2 0 -4 7 -4 15 0 8 4 15 10 15 5
0 7 -7 4 -15z m-4580 -31 c8 -20 -34 -46 -51 -33 -7 6 -10 15 -7 20 3 5 0 9
-6 9 -6 0 -9 4 -5 9 8 14 63 10 69 -5z m-18588 -40 c-3 -8 -10 -14 -16 -14
-17 0 -23 29 -9 46 11 14 13 14 22 -1 5 -9 6 -23 3 -31z m3364 14 c0 -5 -7 -8
-15 -8 -17 0 -18 2 -9 25 5 13 8 14 15 3 5 -7 9 -16 9 -20z m5091 -5 c16 4 17
2 8 -14 -20 -38 -61 -12 -44 29 8 16 8 16 12 -1 3 -13 11 -17 24 -14z m-402
-22 c-6 -2 -15 3 -20 10 -15 24 -10 29 11 11 12 -10 16 -18 9 -21z m-1211 4
c3 -25 -32 -65 -58 -65 -27 0 -34 34 -14 65 21 32 67 32 72 0z m-4105 -26 c16
-26 -1 -68 -36 -89 -38 -24 -57 -25 -57 -5 0 8 -4 15 -10 15 -5 0 -10 15 -10
34 0 23 7 38 23 50 27 19 76 17 90 -5z m-4536 -76 c-32 -32 -51 15 -20 49 17
19 18 19 26 -7 7 -20 5 -31 -6 -42z m14802 58 c9 -6 11 -16 6 -32 -13 -41 -43
-51 -62 -20 -9 15 -8 23 3 40 16 22 31 26 53 12z m3031 -26 c0 -8 -4 -15 -10
-15 -5 0 -7 7 -4 15 4 8 8 15 10 15 2 0 4 -7 4 -15z m-18887 -32 c5 -26 -11
-53 -32 -53 -18 0 -17 45 1 68 16 19 25 15 31 -15z m18934 21 c-3 -3 -12 -4
-19 -1 -8 3 -5 6 6 6 11 1 17 -2 13 -5z m-5311 -25 c11 -19 -17 -59 -43 -59
-24 0 -30 20 -17 54 7 18 49 22 60 5z m-7029 -54 c-10 -11 -14 -10 -20 2 -5 8
-6 22 -2 31 6 16 8 15 20 -2 11 -14 11 -21 2 -31z m13593 -15 c0 -5 -5 -10
-11 -10 -5 0 -7 5 -4 10 3 6 8 10 11 10 2 0 4 -4 4 -10z m34 -23 c-3 -9 -11
-17 -16 -17 -6 0 -7 7 -4 16 3 9 6 21 6 27 0 8 3 8 10 1 6 -6 8 -18 4 -27z
m-5656 -19 c26 -26 9 -73 -34 -96 -43 -23 -73 50 -37 90 18 21 53 24 71 6z
m-17949 -61 c1 -23 -28 -34 -40 -16 -10 16 -2 51 15 61 12 8 24 -15 25 -45z
m9440 34 c17 -11 7 -41 -14 -41 -9 0 -15 9 -15 25 0 27 6 30 29 16z m2661 -11
c0 -5 -5 -10 -11 -10 -5 0 -7 5 -4 10 3 6 8 10 11 10 2 0 4 -4 4 -10z m-3527
-25 c4 -8 2 -17 -3 -20 -6 -4 -10 3 -10 14 0 25 6 27 13 6z m7804 4 c15 -15
-8 -63 -34 -73 -21 -9 -44 19 -36 42 15 41 46 55 70 31z m-7597 -29 c0 -5 -2
-10 -4 -10 -3 0 -8 5 -11 10 -3 6 -1 10 4 10 6 0 11 -4 11 -10z m920 -26 c0
-8 -4 -14 -10 -14 -5 0 -10 9 -10 21 0 11 5 17 10 14 6 -3 10 -13 10 -21z
m-2470 -4 c0 -5 -4 -10 -10 -10 -5 0 -10 5 -10 10 0 6 5 10 10 10 6 0 10 -4
10 -10z m-3909 -47 c-9 -17 -10 -17 -16 0 -4 9 -1 25 6 34 13 15 14 15 17 0 2
-9 -1 -24 -7 -34z m1822 15 c4 -14 0 -29 -10 -40 -14 -16 -19 -16 -30 -5 -10
10 -11 20 -4 40 13 33 37 35 44 5z m-903 -39 c0 -20 -25 -37 -37 -25 -3 3 -1
17 5 32 13 28 32 24 32 -7z m7100 -18 c0 -37 -52 -57 -64 -25 -7 18 8 50 26
57 17 6 38 -12 38 -32z m13670 9 c-1 -17 -30 -39 -43 -34 -21 8 -33 44 -17 54
11 7 60 -9 60 -20z m-20266 -16 c9 -28 -30 -66 -45 -44 -11 18 -2 62 14 72 14
8 22 1 31 -28z m12121 26 c-3 -5 -14 -10 -23 -9 -14 0 -13 2 3 9 27 11 27 11
20 0z m15953 -49 c-2 -9 -13 -17 -26 -19 -22 -3 -27 4 -16 31 7 20 46 9 42
-12z m2132 -7 c0 -16 -10 -28 -31 -39 -36 -19 -44 -15 -35 19 13 54 66 70 66
20z m-19110 6 c0 -5 7 -7 16 -3 22 8 14 -17 -9 -31 -20 -13 -39 7 -30 31 6 15
23 18 23 3z m-3920 -41 c14 -24 -2 -49 -31 -49 -21 0 -25 21 -9 51 14 25 27
24 40 -2z m18714 -41 c-11 -38 -47 -51 -58 -22 -9 23 11 44 41 44 21 0 23 -3
17 -22z m-21340 -19 c-10 -16 -24 -9 -24 12 0 18 2 19 15 9 8 -7 12 -16 9 -21z
m2724 -1 c-5 -34 -38 -37 -38 -4 0 20 5 26 21 26 15 0 20 -5 17 -22z m-8117
-32 c5 3 9 0 9 -6 0 -15 -23 -7 -26 8 -1 7 0 8 3 2 2 -5 9 -8 14 -4z m6288 -7
c11 -19 10 -24 -7 -41 -24 -24 -64 -17 -55 10 7 20 33 52 42 52 3 0 12 -10 20
-21z m11851 -9 c-6 -11 -15 -20 -19 -20 -5 0 -7 9 -4 20 3 11 12 20 20 20 11
0 11 -4 3 -20z m-1024 -10 c17 3 14 -17 -6 -41 -19 -22 -21 -23 -33 -7 -8 10
-17 15 -20 11 -4 -3 -7 -1 -7 5 0 7 10 22 21 33 15 15 23 18 29 9 4 -6 11 -11
16 -10z m-16772 -106 c7 -19 -10 -44 -30 -44 -15 0 -18 18 -8 44 8 21 30 20
38 0z m14186 -34 c0 -5 7 -10 15 -10 18 0 19 -12 3 -28 -20 -20 -33 -14 -35
18 -1 17 2 30 7 30 6 0 10 -4 10 -10z m1189 -41 c-19 -12 -24 -2 -8 17 9 11
14 13 17 4 3 -7 -2 -16 -9 -21z m7427 -26 c-10 -10 -19 5 -10 18 6 11 8 11 12
0 2 -7 1 -15 -2 -18z m-16111 -42 c-4 -21 -12 -30 -23 -28 -46 7 -54 35 -21
68 19 19 23 19 36 6 11 -10 13 -24 8 -46z m-7195 28 c0 8 3 12 6 8 9 -9 -6
-48 -17 -42 -5 4 -9 16 -9 28 0 18 2 19 10 7 8 -12 10 -12 10 -1z m2979 -55
c-12 -14 -39 -8 -39 9 0 6 8 19 17 29 17 19 17 19 25 -3 5 -13 4 -27 -3 -35z
m4316 -13 c-14 -14 -17 -14 -25 -1 -12 20 -4 29 21 23 19 -5 19 -7 4 -22z
m-379 5 c10 -11 11 -17 3 -22 -6 -3 -15 0 -20 7 -18 29 -7 39 17 15z m11332
-61 c2 -2 1 -13 -3 -24 -7 -22 -25 -29 -25 -10 0 6 -7 9 -15 5 -15 -6 -22 24
-8 37 6 6 42 0 51 -8z m-130 -41 c2 -11 -6 -31 -17 -45 -19 -23 -19 -24 -40
-5 -25 23 -26 34 -4 58 22 24 57 20 61 -8z m-11328 -69 c16 -19 -3 -45 -31
-45 -22 0 -26 29 -7 48 16 16 23 15 38 -3z m-176 -61 c9 -24 7 -27 -9 -10 -17
17 -19 26 -6 26 5 0 12 -7 15 -16z m9146 -34 c0 -44 -47 -79 -65 -50 -3 6 -15
10 -26 10 -12 0 -19 7 -19 19 0 11 -4 21 -10 23 -6 2 -6 8 0 18 9 13 11 13 20
0 7 -11 12 -12 18 -4 9 14 40 22 65 16 11 -3 17 -14 17 -32z m-12142 -47 c-6
-7 -17 -13 -24 -13 -17 0 -18 32 -2 48 16 16 41 -17 26 -35z m1848 -9 c-8 -22
-46 -18 -46 6 0 26 32 44 43 24 5 -9 6 -22 3 -30z m3204 11 c14 -16 6 -35 -16
-35 -8 0 -14 10 -14 25 0 28 12 32 30 10z m13573 -66 c15 -24 -16 -69 -47 -69
-37 0 -51 24 -36 61 11 25 18 30 43 27 16 -2 35 -10 40 -19z m-25125 -13 c4
-17 -12 -35 -29 -36 -9 0 -17 32 -11 48 6 19 36 10 40 -12z m9036 -37 c-3 -5
-12 -9 -20 -9 -17 0 -19 31 -2 48 10 10 14 8 20 -9 5 -11 6 -25 2 -30z m12566
36 c0 -8 -7 -15 -16 -15 -14 0 -14 3 -4 15 7 8 14 15 16 15 2 0 4 -7 4 -15z
m9440 -47 c0 -19 -32 -48 -52 -48 -20 0 -24 24 -6 43 15 17 58 20 58 5z
m-28075 -60 c15 -37 5 -68 -23 -68 -42 0 -55 47 -22 80 26 26 29 26 45 -12z
m10275 -122 c0 -3 -4 -8 -10 -11 -5 -3 -10 -1 -10 4 0 6 5 11 10 11 6 0 10 -2
10 -4z m12454 -57 c13 20 27 1 16 -20 -10 -17 -13 -18 -25 -5 -8 8 -15 21 -15
28 0 10 2 10 9 -1 6 -9 11 -10 15 -2z m-26064 -34 c12 -33 -7 -70 -27 -53 -14
11 -18 60 -6 71 12 13 24 7 33 -18z m24020 -24 c0 -6 -4 -13 -10 -16 -5 -3
-10 1 -10 9 0 9 5 16 10 16 6 0 10 -4 10 -9z m2189 -66 c2 -10 -5 -25 -15 -32
-21 -15 -58 -18 -49 -3 3 6 2 10 -4 10 -11 0 -3 31 11 41 18 12 53 2 57 -16z
m-12189 -10 c0 -8 7 -15 15 -15 22 0 18 -17 -7 -34 -19 -13 -25 -14 -36 -3
-10 11 -11 19 -1 40 13 29 29 36 29 12z m612 -17 c-7 -7 -12 -8 -12 -2 0 14
12 26 19 19 2 -3 -1 -11 -7 -17z m-1572 -48 c20 -13 2 -44 -29 -48 -16 -3 -21
2 -21 21 0 37 19 47 50 27z m3716 -27 c-10 -10 -19 5 -10 18 6 11 8 11 12 0 2
-7 1 -15 -2 -18z m-12366 -3 c0 -11 -4 -20 -9 -20 -7 0 -8 17 -2 38 4 10 11
-2 11 -18z m6400 -81 c13 -24 -2 -49 -30 -49 -23 0 -32 36 -13 55 20 20 30 19
43 -6z m-6167 -33 c7 -19 -18 -42 -28 -26 -8 13 1 40 14 40 5 0 11 -6 14 -14z
m2651 -31 c4 -10 -1 -15 -14 -15 -11 0 -20 5 -20 11 0 5 5 7 10 4 6 -3 10 -1
10 4 0 16 7 13 14 -4z m371 -15 c3 -5 1 -10 -4 -10 -6 0 -11 5 -11 10 0 6 2
10 4 10 3 0 8 -4 11 -10z m238 -47 c-6 -16 -29 -17 -38 -3 -4 6 -1 17 5 25 9
11 15 12 25 2 7 -6 10 -18 8 -24z m1081 -79 c13 -5 14 -9 5 -20 -13 -16 -29
-9 -29 12 0 16 2 16 24 8z m2588 -28 c6 4 9 1 6 -6 -7 -23 -36 -36 -49 -23 -8
8 -8 17 1 34 11 20 13 20 22 5 5 -9 14 -13 20 -10z m-6516 -53 c4 -14 2 -33
-3 -42 -27 -43 -72 -6 -53 43 13 35 47 35 56 -1z m4264 17 c13 -8 13 -11 -2
-27 -21 -20 -45 -5 -35 21 7 18 16 20 37 6z m-3850 -50 c0 -5 -5 -10 -11 -10
-5 0 -7 5 -4 10 3 6 8 10 11 10 2 0 4 -4 4 -10z m11874 -22 c-5 -8 -2 -9 9 -5
25 10 29 -8 7 -34 -19 -23 -20 -23 -35 -5 -15 20 -5 56 16 56 6 0 7 -5 3 -12z
m-15344 -59 c0 -16 -19 -29 -41 -29 -13 0 -11 54 3 68 10 10 15 9 25 -5 7 -9
13 -24 13 -34z m23628 -15 c18 -19 15 -75 -5 -90 -26 -20 -49 -17 -79 10 -26
21 -27 25 -15 53 20 48 65 60 99 27z m10142 -48 c0 -23 -33 -46 -47 -33 -10
10 8 46 25 50 9 3 18 5 20 6 1 0 2 -10 2 -23z m-35937 -25 c11 -44 3 -61 -27
-61 -34 0 -45 40 -21 76 21 32 37 27 48 -15z m4405 -69 c2 -7 -3 -12 -12 -12
-9 0 -16 7 -16 16 0 17 22 14 28 -4z m16920 -21 c11 -7 11 -12 1 -28 -16 -27
-49 -18 -49 13 0 25 22 32 48 15z m191 -10 c17 -11 7 -56 -14 -65 -23 -8 -51
39 -35 59 14 17 29 19 49 6z m-7295 -92 c-3 -5 2 -9 10 -9 9 0 16 -4 16 -8 0
-14 -23 -32 -42 -32 -21 0 -24 16 -5 23 7 3 5 6 -5 6 -21 1 -23 12 -7 28 13
13 42 6 33 -8z m7169 2 c17 -6 17 -8 3 -20 -13 -11 -16 -11 -16 2 0 8 -6 18
-12 20 -7 3 -8 5 -3 6 6 0 18 -4 28 -8z m-21553 -73 c0 -13 -23 -5 -28 10 -2
7 2 10 12 6 9 -3 16 -11 16 -16z m19640 8 c0 -3 -4 -8 -10 -11 -5 -3 -10 -1
-10 4 0 6 5 11 10 11 6 0 10 -2 10 -4z m-2110 -156 c-11 -20 -30 -28 -30 -12
0 11 22 32 32 32 5 0 4 -9 -2 -20z m14114 -35 c-7 -17 -20 -20 -28 -6 -7 10 3
21 20 21 8 0 11 -6 8 -15z m-28792 -37 c-13 -13 -26 8 -17 30 6 16 7 16 17 -1
7 -13 7 -22 0 -29z m7808 -12 c0 -2 -7 -7 -16 -10 -8 -3 -12 -2 -9 4 6 10 25
14 25 6z m-7565 -116 c3 -6 0 -17 -8 -25 -13 -12 -14 -11 -14 11 0 25 11 32
22 14z m21501 -33 c-6 -27 -34 -43 -49 -28 -16 16 -3 45 23 51 32 8 34 6 26
-23z m-14881 3 c8 -25 -10 -50 -37 -50 -24 0 -33 23 -18 49 14 27 47 27 55 1z
m5770 -120 c3 -5 1 -20 -5 -34 -7 -19 -17 -26 -35 -26 -33 0 -42 23 -21 54 15
23 48 26 61 6z m-5230 -100 c3 -5 1 -10 -4 -10 -6 0 -11 5 -11 10 0 6 2 10 4
10 3 0 8 -4 11 -10z m7080 -70 c4 -6 11 -8 16 -5 13 9 11 -8 -5 -30 -16 -22
-46 -14 -46 13 0 30 22 43 35 22z m7411 -10 c12 0 12 -4 4 -20 -13 -23 -45
-28 -36 -5 3 8 1 15 -4 15 -6 0 -10 5 -10 11 0 6 7 8 16 5 9 -3 22 -6 30 -6z
m-19276 -14 c0 -2 -7 -6 -15 -10 -8 -3 -15 -1 -15 4 0 6 7 10 15 10 8 0 15 -2
15 -4z m17570 -36 c0 -5 -5 -10 -11 -10 -5 0 -7 5 -4 10 3 6 8 10 11 10 2 0 4
-4 4 -10z m-11266 -68 c15 -18 15 -21 -5 -45 -17 -22 -24 -25 -40 -17 -23 13
-24 37 -2 62 20 23 26 23 47 0z m9205 9 c24 -15 -2 -61 -34 -61 -30 0 -41 20
-25 49 11 22 35 27 59 12z m6171 -15 c0 -16 -26 -46 -40 -46 -36 0 -45 32 -16
52 19 13 56 9 56 -6z m10037 -23 c-21 -22 -32 -11 -15 16 8 13 16 17 22 11 7
-7 4 -16 -7 -27z m-29174 -119 c-7 -19 -40 -37 -53 -29 -16 10 -12 47 7 68 17
18 18 18 35 -3 9 -11 14 -28 11 -36z m22257 -43 c0 -12 -29 -41 -41 -41 -14 0
-11 17 7 34 17 18 34 21 34 7z m-18035 -110 c-3 -6 -11 -11 -17 -11 -6 0 -6 6
2 15 14 17 26 13 15 -4z m-8990 -30 c3 -5 1 -12 -5 -16 -5 -3 -10 1 -10 9 0
18 6 21 15 7z m14375 -1 c13 -8 13 -13 0 -37 -30 -55 -87 -33 -62 23 12 25 36
31 62 14z m-11920 -10 c0 -4 -6 -13 -14 -19 -10 -9 -15 -8 -19 3 -3 8 -4 16
-1 18 7 7 34 5 34 -2z m11700 -20 c0 -5 7 -7 15 -4 20 8 20 -20 0 -36 -8 -7
-22 -10 -30 -6 -15 5 -21 37 -8 49 10 10 23 8 23 -3z m18110 -70 c0 -5 -5 -10
-11 -10 -5 0 -7 5 -4 10 3 6 8 10 11 10 2 0 4 -4 4 -10z m-1940 -46 c0 -27
-20 -54 -40 -54 -25 0 -25 11 1 44 23 29 39 34 39 10z m-19582 -93 c-2 -8 -11
-19 -20 -25 -14 -8 -22 -7 -35 6 -16 16 -16 19 1 37 15 16 21 18 37 8 11 -7
18 -18 17 -26z m-13777 2 c7 -20 6 -28 -3 -35 -33 -21 -63 17 -38 47 18 22 29
18 41 -12z m5065 -7 c7 -30 -1 -46 -26 -46 -23 0 -33 26 -20 51 15 27 38 24
46 -5z m13147 -69 c16 -11 16 -14 2 -35 -30 -42 -79 -16 -55 29 12 22 29 24
53 6z m-4913 -47 c0 -5 -4 -10 -10 -10 -5 0 -10 5 -10 10 0 6 5 10 10 10 6 0
10 -4 10 -10z m3040 -167 c9 -8 -18 -38 -37 -41 -25 -4 -38 25 -22 44 10 13
44 11 59 -3z m63 -26 c4 3 7 -1 7 -9 0 -22 -27 -30 -34 -12 -10 27 -7 37 7 25
8 -6 17 -8 20 -4z m-1593 -37 c0 -3 -7 -14 -15 -24 -12 -16 -17 -17 -30 -6
-31 25 -7 68 26 47 11 -7 19 -14 19 -17z m-11033 -134 c-9 -22 -57 -21 -58 2
-2 32 2 47 19 60 15 11 19 9 31 -17 8 -16 11 -36 8 -45z m21521 56 c-5 -25
-35 -39 -50 -23 -8 9 -9 12 -1 7 6 -3 14 -2 18 4 3 5 1 10 -4 10 -6 0 -11 4
-11 9 0 5 11 9 25 9 18 0 25 -5 23 -16z m-16704 -27 c19 -14 19 -15 1 -35 -33
-37 -62 -21 -45 24 11 30 17 31 44 11z m5400 -7 c8 -14 6 -22 -11 -39 -26 -26
-53 -19 -53 14 0 45 41 61 64 25z m732 -28 c20 0 17 -28 -4 -39 -20 -11 -42 2
-42 24 0 16 24 38 28 25 2 -5 10 -10 18 -10z m11094 9 c0 -38 -42 -64 -54 -33
-12 31 -11 32 47 43 4 0 7 -4 7 -10z m-16976 -61 c22 -32 20 -55 -8 -83 -25
-25 -48 -25 -71 0 -25 27 -16 77 17 93 34 16 45 14 62 -10z m22424 10 c34 -34
-1 -83 -55 -76 -37 4 -38 20 -4 57 32 34 41 37 59 19z m-10184 -74 c24 -9 21
-61 -4 -74 -47 -25 -82 34 -38 64 26 19 22 18 42 10z m-9310 -40 c21 -21 20
-27 -7 -53 -41 -38 -75 -3 -47 50 13 23 33 24 54 3z m3056 5 c0 -5 4 -8 9 -4
5 3 12 1 16 -4 3 -6 -3 -15 -14 -20 -26 -14 -26 -15 -27 14 -1 14 2 25 7 25 5
0 9 -5 9 -11z m2498 -62 c20 8 11 -17 -11 -31 -21 -14 -42 6 -33 30 5 13 10
14 18 6 6 -6 17 -8 26 -5z m6148 -35 c-11 -12 -19 -13 -27 -5 -8 8 -4 15 13
27 28 20 39 3 14 -22z m-16868 -129 c-6 -7 -14 -13 -19 -13 -13 0 -11 24 3 38
16 16 31 -7 16 -25z m3337 13 c10 -10 11 -16 2 -25 -19 -19 -37 -12 -37 14 0
28 14 32 35 11z m618 -32 c-8 -21 -42 -18 -38 4 2 9 4 18 4 19 1 0 10 -1 20
-4 12 -3 17 -11 14 -19z m-6049 -25 c19 -39 7 -59 -35 -59 -24 0 -29 4 -29 26
0 33 17 64 35 64 7 0 21 -14 29 -31z m17484 1 c-2 -8 -13 -16 -26 -18 -24 -4
-25 -2 -16 21 7 21 46 18 42 -3z m-740 -16 c4 -28 -31 -58 -57 -49 -12 3 -21
15 -21 25 0 46 72 68 78 24z m3180 -37 c-5 -10 -11 -17 -12 -15 -1 1 -7 10
-13 19 -10 12 -8 15 12 15 20 0 22 -3 13 -19z m-4582 -177 c18 0 18 -24 -1
-40 -19 -15 -49 -9 -53 11 -4 20 30 57 36 40 2 -6 10 -11 18 -11z m5221 -23
c10 -11 -27 -46 -48 -44 -19 1 -23 14 -13 40 5 15 47 17 61 4z m-21121 -20 c4
-4 -2 -7 -14 -7 -12 0 -22 4 -22 9 0 10 26 9 36 -2z m16313 -5 c7 -13 6 -27
-4 -45 -7 -14 -11 -28 -7 -31 3 -3 -6 -6 -21 -6 -15 0 -32 9 -41 22 -20 28
-20 30 4 56 25 27 56 28 69 4z m-3808 -62 c14 0 11 -16 -9 -40 -19 -24 -52
-19 -52 9 0 23 21 43 38 36 8 -3 18 -5 23 -5z m-1550 -30 c39 -21 18 -60 -32
-60 -22 0 -27 38 -7 58 15 15 15 15 39 2z m-13639 -63 c-16 -17 -17 -17 -29
-1 -18 24 -16 41 5 53 13 7 20 5 29 -12 9 -18 8 -25 -5 -40z m30783 44 c-3 -6
-11 -11 -17 -11 -6 0 -6 6 2 15 14 17 26 13 15 -4z m-31625 -47 c0 -18 -26
-18 -33 0 -3 8 -3 16 0 19 9 10 33 -5 33 -19z m-113 2 c-5 -16 -27 -19 -27 -3
0 7 7 14 15 14 9 0 14 -5 12 -11z m7973 -105 c0 -11 -39 -26 -47 -17 -4 3 -1
17 5 32 11 22 14 24 27 10 8 -8 15 -19 15 -25z m20950 16 c0 -17 -20 -37 -37
-37 -7 0 -13 11 -13 25 0 20 5 25 25 25 14 0 25 -6 25 -13z m-18361 -86 c12
-8 13 -12 1 -25 -15 -19 -22 -14 -27 14 -3 22 4 25 26 11z m4272 -281 c17 0 9
-29 -11 -40 -24 -13 -40 -5 -40 19 0 23 10 33 28 26 7 -3 18 -5 23 -5z m-4226
-110 c-3 -5 -12 -10 -18 -10 -7 0 -6 4 3 10 19 12 23 12 15 0z m-820 -14 c18
-13 18 -15 2 -40 -22 -33 -44 -33 -59 -1 -8 19 -8 28 2 40 15 19 31 19 55 1z
m8783 -78 c19 -24 11 -65 -15 -77 -46 -21 -78 22 -53 70 12 21 52 26 68 7z
m-16747 -139 c9 -17 8 -25 -4 -37 -9 -8 -23 -12 -31 -9 -19 8 -21 53 -3 60 21
9 26 7 38 -14z m13595 -24 c-17 -25 -50 -26 -54 -2 -6 30 15 47 43 33 21 -10
23 -13 11 -31z m7124 -125 c0 -5 -2 -10 -4 -10 -3 0 -8 5 -11 10 -3 6 -1 10 4
10 6 0 11 -4 11 -10z m-19405 -46 c0 -12 -8 -20 -22 -22 -17 -3 -23 2 -23 16
0 20 16 33 35 28 6 -2 10 -11 10 -22z m11299 -75 c3 1 6 -1 6 -4 0 -3 0 -9 0
-15 0 -5 -9 -10 -20 -10 -13 0 -20 7 -20 18 0 24 12 36 20 21 4 -6 10 -10 14
-10z m3353 -80 c9 -3 8 -9 -2 -22 -15 -21 -55 -15 -55 7 0 19 22 37 34 27 6
-5 16 -10 23 -12z"/>
<path d="M19559 11743 c-13 -16 -12 -17 4 -4 16 13 21 21 13 21 -2 0 -10 -8
-17 -17z"/>
<path d="M18730 11619 c0 -5 5 -7 10 -4 6 3 10 8 10 11 0 2 -4 4 -10 4 -5 0
-10 -5 -10 -11z"/>
</g>
</svg>
